<svg width="52" height="40" viewBox="0 0 52 40" fill="none" xmlns="http://www.w3.org/2000/svg">
<path d="M31.8844 36.6463V33.3939H35.1368V39.8987H25.3796V36.6463H31.8844Z" fill="#231E2B"/>
<path d="M15.6224 33.3939H25.3796V36.6463H15.6224V33.3939Z" fill="#231E2B"/>
<path d="M12.37 30.1415H15.6224V33.3939H12.37V30.1415Z" fill="#231E2B"/>
<path d="M25.3796 30.1415V13.8795H28.632V20.3843H31.8844V23.6367H28.632V30.1415H31.8844V23.6367H35.1368V26.8891H38.3892V30.1415H35.1368V33.3939H31.8844V36.6463H25.3796V33.3939H15.6224V30.1415H25.3796Z" fill="#33A53E"/>
<path d="M35.1368 30.1415H38.3892V33.3939H35.1368V30.1415Z" fill="#231E2B"/>
<path d="M48.1464 30.1415V13.8795H44.894V10.6271H51.3988V33.3939H44.894V30.1415H48.1464Z" fill="#231E2B"/>
<path d="M9.11759 26.8891H12.37V30.1415H9.11759V26.8891Z" fill="#231E2B"/>
<path d="M12.37 26.8891H15.6224V30.1415H12.37V26.8891Z" fill="#33A53E"/>
<path d="M28.632 23.6367H31.8844V30.1415H28.632V23.6367Z" fill="#86DB68"/>
<path d="M38.3892 26.8891H44.894V30.1415H38.3892V26.8891Z" fill="#231E2B"/>
<path d="M44.894 26.8891H48.1464V30.1415H44.894V26.8891Z" fill="#33A53E"/>
<path d="M9.11759 23.6367H12.37V26.8891H9.11759V23.6367Z" fill="#33A53E"/>
<path d="M35.1368 23.6367H38.3892V26.8891H35.1368V23.6367Z" fill="#86DB68"/>
<path d="M38.3892 23.6367H44.894V26.8891H38.3892V23.6367Z" fill="#33A53E"/>
<path d="M44.894 23.6367H48.1464V26.8891H44.894V23.6367Z" fill="#86DB68"/>
<path d="M5.86518 17.1319H9.11758V26.8891H5.86518V17.1319Z" fill="#231E2B"/>
<path d="M31.8844 20.3843H35.1368V23.6367H31.8844V20.3843Z" fill="#86DB68"/>
<path d="M35.1368 20.3843H38.3892V23.6367H35.1368V20.3843Z" fill="#33A53E"/>
<path d="M38.3892 20.3843H44.894V23.6367H38.3892V20.3843Z" fill="#86DB68"/>
<path d="M44.894 20.3843H48.1464V23.6367H44.894V20.3843Z" fill="#33A53E"/>
<path d="M9.11759 17.1319H12.37V20.3843H9.11759V17.1319Z" fill="#BFFFA0"/>
<path d="M12.37 17.1319H15.6224V13.8795H25.3796V30.1415H15.6224V26.8891H12.37V23.6367H9.11756V20.3843H12.37V17.1319ZM22.1272 17.1319H18.8748V20.3843H22.1272V17.1319Z" fill="#86DB68"/>
<path d="M18.8747 17.1319H22.1271V20.3843H18.8747V17.1319Z" fill="#231E2B"/>
<path d="M31.8844 13.8795H35.1368V20.3843H31.8844V13.8795Z" fill="#33A53E"/>
<path d="M35.1368 17.1319H38.3892V20.3843H35.1368V17.1319Z" fill="#86DB68"/>
<path d="M38.3892 17.1319H41.6416V20.3843H38.3892V17.1319Z" fill="#33A53E"/>
<path d="M41.6416 17.1319H44.894V20.3843H41.6416V17.1319Z" fill="#BFFFA0"/>
<path d="M44.894 17.1319H48.1464V20.3843H44.894V17.1319Z" fill="#86DB68"/>
<path d="M9.11759 13.8795H12.37V17.1319H9.11759V13.8795Z" fill="#231E2B"/>
<path d="M12.37 13.8795H15.6224V17.1319H12.37V13.8795Z" fill="#BFFFA0"/>
<path d="M28.632 13.8795H31.8844V20.3843H28.632V13.8795Z" fill="#86DB68"/>
<path d="M35.1368 13.8795H38.3892V17.1319H35.1368V13.8795Z" fill="#BFFFA0"/>
<path d="M38.3892 13.8795H44.894V17.1319H38.3892V13.8795Z" fill="#231E2B"/>
<path d="M44.894 13.8795H48.1464V17.1319H44.894V13.8795Z" fill="#BFFFA0"/>
<path d="M12.37 10.6271H15.6224V13.8795H12.37V10.6271Z" fill="#231E2B"/>
<path d="M15.6223 10.6271H22.1271V13.8795H15.6223V10.6271Z" fill="#BFFFA0"/>
<path d="M22.1272 10.6271H25.3796V13.8795H22.1272V10.6271Z" fill="#33A53E"/>
<path d="M25.3796 10.6271H28.632V13.8795H25.3796V10.6271Z" fill="#BFFFA0"/>
<path d="M28.632 10.6271H31.8844V13.8795H28.632V10.6271Z" fill="#33A53E"/>
<path d="M31.8844 10.6271H35.1368V13.8795H31.8844V10.6271Z" fill="#BFFFA0"/>
<path d="M35.1368 10.6271H38.3892V13.8795H35.1368V10.6271Z" fill="#231E2B"/>
<path d="M25.3796 7.37469H31.8844V10.6271H25.3796V7.37469Z" fill="#86DB68"/>
<path d="M25.3796 10.6271H15.6224V7.37466H22.1272V4.12225H25.3796V10.6271Z" fill="#231E2B"/>
<path d="M25.3796 4.12225H31.8844V7.37466H25.3796V4.12225Z" fill="#BFFFA0"/>
<path d="M35.1368 10.6271H31.8844V4.12228H25.3796V0.869873H35.1368V10.6271Z" fill="#231E2B"/>
<path d="M24.646 11.8807L19.7683 9.27198H16.8417L14.6468 10.932L11.7202 9.74628L7.57419 8.79767L5.86701 12.355L2.20877 13.7779V18.0466L5.86701 25.3984H12.9396L16.5979 28.0071L22.6949 29.1929L26.1093 25.3984L28.5481 23.7383V13.7779L24.646 11.8807Z" fill="white"/>
<rect x="6.84253" y="7.37469" width="5.85316" height="2.84584" fill="black"/>
<rect x="3.91599" y="10.2208" width="2.92659" height="2.84584" fill="black"/>
<rect x="6.84253" y="15.9124" width="2.92659" height="2.84584" fill="black"/>
<rect x="18.549" y="17.3354" width="2.92659" height="2.84584" fill="black"/>
<rect x="27.3287" y="13.0665" width="2.92659" height="11.3834" fill="black"/>
<rect x="3.91599" y="21.6041" width="2.92659" height="5.69168" fill="black"/>
<rect x="6.84253" y="24.4498" width="2.92659" height="2.84581" fill="black"/>
<rect x="9.76923" y="24.4498" width="2.92659" height="2.84584" fill="black"/>
<rect x="0.989441" y="13.0665" width="2.92659" height="8.53752" fill="black"/>
<rect x="9.76923" y="13.0665" width="2.92659" height="5.69168" fill="black"/>
<rect x="8.79361" y="18.7582" width="2.92659" height="5.69168" fill="black"/>
<rect x="18.549" y="7.37469" width="3.09276" height="2.84584" fill="black"/>
<rect x="21.4756" y="10.2208" width="5.85319" height="2.84584" fill="black"/>
<rect x="24.4022" y="24.4498" width="2.92659" height="2.84584" fill="black"/>
<rect x="12.6957" y="24.4498" width="2.92659" height="2.84584" fill="black"/>
<rect x="15.6223" y="27.2957" width="8.77978" height="2.84584" fill="black"/>
<rect x="12.6957" y="10.2208" width="2.92659" height="2.84584" fill="black"/>
<rect x="15.6223" y="7.37469" width="2.92659" height="2.84584" fill="black"/>
</svg>
