<svg width="107" height="66" viewBox="0 0 107 66" fill="none" xmlns="http://www.w3.org/2000/svg">
<path d="M97.4755 27.4539H100.404V24.4897H103.336V18.5572H94.5473V21.5213H91.6148V24.4897H88.6865V27.4539H85.754H82.8257V24.4897H79.8975V21.5213H76.965V18.5572H74.0367V15.5887H71.1085V12.6246H68.1759H65.2477H62.3194V9.66047H59.3869H56.4587H53.5261V6.69203H47.6696V3.72791H41.8088V6.69203H38.8806V9.66047H35.9481V12.6246H33.0198V15.5887H24.2308V18.5572H21.2983V21.5213H15.4418V27.4539H12.5092V30.418H9.58099V36.3505H12.5092V39.3147V42.2831H15.4418V48.2114H18.37V51.1798H21.2983V54.1439H27.159V57.1124H33.0198V60.0765H35.9481V63.0406H44.7371V60.0765H47.6696V57.1124H53.5261V54.1439H56.4587H68.1759V51.1798H74.0367V48.2114H79.8975V45.2472H82.8257V42.2831H85.754H88.6865H91.6148V45.2472H94.5473V48.2114H103.336V42.2831H100.404V39.3147H97.4755V33.3864V27.4539Z" fill="#D07102"/>
<path d="M47.5117 65.8492H33.1735V62.885H30.2452V59.9209H24.3845V56.9568H18.5237V53.9927H15.5954V51.0285H12.6672V45.096H9.73892V39.1634H6.8064V27.6137H9.73465V24.6496H12.6629V18.717H18.5237V15.7529H21.4519V12.7888H30.241V9.82464H33.1692V6.86052H36.0975V3.8964H39.0257V0.919312H50.4357V3.88343H56.2964V6.84756H65.0855V9.81168H73.8745V12.7758H76.8027V15.7399H79.731V18.7041H82.6592V21.6682H85.5875V24.6323H85.8991V21.6682H88.8274V18.7041H91.7556V15.7399H106.094V27.2896H103.166V30.2538H100.237V36.5018H103.166V39.4659H106.094V51.0156H91.7556V48.0515H88.8274V45.0873H85.5875V48.0515H82.6592V51.0156H76.7985V53.9797H70.9377V56.9438H56.2879V59.908H50.4271V62.8721H47.4989V65.8362L47.5117 65.8492ZM38.7226 60.232H41.9625V57.2679H44.8908V54.3038H50.7515V51.3397H65.4013V48.3755H71.2621V45.4114H77.1229V42.4473H80.0511V39.4832H94.3893V42.4473H97.3176V45.4114H100.557V45.096H97.6292V42.1319H94.7009V24.6496H97.6292V21.6855H100.557V21.37H97.3176V24.3342H94.3893V27.2983H91.4611V30.2624H80.0511V27.2983H77.1229V24.3342H74.1946V21.37H71.2664V18.4059H68.3381V15.4418H59.5491V12.4777H50.7601V9.51354H44.8993V6.54942H44.5877V9.51354H41.6594V12.4777H38.7312V15.4418H35.8029V18.4059H27.0139V21.37H24.0857V24.3342H18.2249V30.2667H15.2966V33.2308H12.3684V33.5463H15.2966V39.4788H18.2249V45.4114H21.1531V48.3755H24.0814V51.3397H29.9422V54.3038H35.8029V57.2679H38.7312V60.232H38.7226Z" fill="#222221"/>
<path d="M85.754 30.4179V27.4538H88.6865V24.4897H91.6147V21.5213H94.5473V18.5571H103.336V24.4897H100.404V27.4538H97.4755V33.3864V39.3146H100.404V42.2831H103.336V48.2113H94.5473V45.2472H91.6147V42.2831H88.6865H85.754V30.4179Z" fill="#D07102"/>
<path d="M91.6147 30.4179H88.6865V33.3821H91.6147V30.4179Z" fill="#F1821C"/>
<path d="M94.543 27.4538H91.6148V30.4179H94.543V27.4538Z" fill="#F1821C"/>
<path d="M97.4755 24.4897H94.5472V27.4538H97.4755V24.4897Z" fill="#F1821C"/>
<path d="M91.6147 33.3864H88.6865V36.3505H91.6147V33.3864Z" fill="#F1821C"/>
<path d="M91.6147 36.3505H88.6865V39.3146H91.6147V36.3505Z" fill="#F1821C"/>
<path d="M94.543 39.3146H91.6148V42.2788H94.543V39.3146Z" fill="#F1821C"/>
<path d="M97.4755 42.2831H94.5472V45.2472H97.4755V42.2831Z" fill="#F1821C"/>
<path d="M35.9481 12.6246V9.66047H38.8806V6.69203H41.8089V3.72791H47.6696V6.69203H53.5261V9.66047H56.4587H59.3869H62.3194V12.6246H65.2477H68.176H71.1085V15.5887H74.0367V18.5572H35.9481V12.6246Z" fill="#D07102"/>
<path d="M41.8089 9.66043H38.8806V12.6246H41.8089V9.66043Z" fill="#F1821C"/>
<path d="M44.7371 6.69199H41.8088V9.65611H44.7371V6.69199Z" fill="#F1821C"/>
<path d="M47.6653 9.66043H44.7371V12.6246H47.6653V9.66043Z" fill="#F1821C"/>
<path d="M50.5979 9.66043H47.6696V12.6246H50.5979V9.66043Z" fill="#F1821C"/>
<path d="M47.6696 12.6246H33.0198V15.5887H24.2308V18.5571H21.2983V21.5213H15.4418V27.4538H12.5092V30.418H9.58099V36.3505H12.5092V39.3146H15.4418V48.2113H18.37V51.1798H21.2983V54.1439H27.159V57.1123H53.5261V54.1439H56.4587H68.1759V51.1798H74.0367V48.2113H79.8975V45.2472H82.8257V42.2831H85.754V39.3146H88.6865V30.418H85.754V27.4538H82.8257V24.4897H79.8975V21.5213H76.965V18.5571H68.1759V15.5887H62.3194V12.6246H47.6696Z" fill="#FFB031"/>
<path d="M85.754 27.4539H82.8257V30.418H85.754V27.4539Z" fill="#FFD54D"/>
<path d="M82.8257 24.4897H79.8975V27.4538H82.8257V24.4897Z" fill="#FFD54D"/>
<path d="M79.8932 21.5212H76.965V24.4854H79.8932V21.5212Z" fill="#FFD54D"/>
<path d="M76.965 21.5212H74.0367V24.4854H76.965V21.5212Z" fill="#FFD54D"/>
<path d="M76.965 18.5571H74.0367V21.5213H76.965V18.5571Z" fill="#FFD54D"/>
<path d="M74.0367 18.5571H71.1085V21.5213H74.0367V18.5571Z" fill="#FFD54D"/>
<path d="M71.1042 18.5571H68.1759V21.5213H71.1042V18.5571Z" fill="#FFD54D"/>
<path d="M65.2477 15.5887H62.3194V18.5528H65.2477V15.5887Z" fill="#FFD54D"/>
<path d="M62.3152 12.6246H59.3869V15.5887H62.3152V12.6246Z" fill="#FFD54D"/>
<path d="M68.1759 15.5887H65.2477V18.5528H68.1759V15.5887Z" fill="#FFD54D"/>
<path d="M30.0916 51.1798V54.1439H33.0198V60.0765H35.9481V63.0406H44.7371V60.0765H47.6696V57.1124H44.7371V54.1439H41.8088V51.1798H38.8806V48.2114H35.9481V45.2473H33.0198V48.2114H30.0916V51.1798Z" fill="#D07102"/>
<path d="M38.8763 48.2113H35.9481V51.1754H38.8763V48.2113Z" fill="#F1821C"/>
<path d="M38.8763 51.1798H35.9481V54.1439H38.8763V51.1798Z" fill="#F1821C"/>
<path d="M41.8089 51.1798H38.8806V54.1439H41.8089V51.1798Z" fill="#F1821C"/>
<path d="M41.8089 54.1439H38.8806V57.108H41.8089V54.1439Z" fill="#F1821C"/>
<path d="M44.7371 54.1439H41.8088V57.108H44.7371V54.1439Z" fill="#F1821C"/>
<path d="M44.7371 21.5212H41.8088V24.4853H44.7371V21.5212Z" fill="#F0923D"/>
<path d="M47.6653 24.4897H44.7371V27.4538H47.6653V24.4897Z" fill="#F0923D"/>
<path d="M47.6653 27.4538H44.7371V30.4179H47.6653V27.4538Z" fill="#F0923D"/>
<path d="M50.5978 30.4179H47.6696V33.3821H50.5978V30.4179Z" fill="#F0923D"/>
<path d="M47.6653 33.3864H44.7371V36.3505H47.6653V33.3864Z" fill="#F0923D"/>
<path d="M44.7371 36.3505H41.8088V39.3146H44.7371V36.3505Z" fill="#F0923D"/>
<path d="M41.8089 39.3146H38.8806V42.2787H41.8089V39.3146Z" fill="#F0923D"/>
<path d="M18.37 39.3146H15.4417V42.2787H18.37V39.3146Z" fill="#F0923D"/>
<path d="M15.4375 36.3505H12.5092V39.3146H15.4375V36.3505Z" fill="#F0923D"/>
<path d="M15.4375 39.3146H12.5092V42.2787H15.4375V39.3146Z" fill="#FFB031"/>
<path d="M21.2982 42.2831H18.37V45.2472H21.2982V42.2831Z" fill="#F0923D"/>
<path d="M24.2264 42.2831H21.2982V45.2472H24.2264V42.2831Z" fill="#F0923D"/>
<path d="M27.1591 39.3146H24.2308V42.2787H27.1591V39.3146Z" fill="#F0923D"/>
<path d="M53.5261 39.3146H56.4586V42.2831H59.3869V45.2472H62.3194V51.1798H59.3869V48.2113H53.5261V45.2472H50.5978V39.3146H53.5261Z" fill="#D07102"/>
<path d="M24.6098 23.4801L19.7322 20.8714H16.8056L14.6107 22.5314L11.6841 21.3457L7.53806 20.3971L5.83088 23.9544L2.17264 25.3773V29.646L5.83088 36.9978H12.9035L16.5617 39.6065L22.6588 40.7923L26.0731 36.9978L28.512 35.3377V25.3773L24.6098 23.4801Z" fill="white"/>
<rect x="6.8064" y="18.9741" width="5.85316" height="2.84584" fill="black"/>
<rect x="3.87982" y="21.8202" width="2.92659" height="2.84584" fill="black"/>
<rect x="6.8064" y="27.5118" width="2.92659" height="2.84584" fill="black"/>
<rect x="18.5128" y="28.9348" width="2.92659" height="2.84584" fill="black"/>
<rect x="27.2926" y="24.6658" width="2.92659" height="11.3834" fill="black"/>
<rect x="3.87982" y="33.2035" width="2.92659" height="5.69168" fill="black"/>
<rect x="6.8064" y="36.0493" width="2.92659" height="2.84581" fill="black"/>
<rect x="9.73306" y="36.0493" width="2.92659" height="2.84584" fill="black"/>
<rect x="0.953278" y="24.6658" width="2.92659" height="8.53752" fill="black"/>
<rect x="9.73306" y="24.6658" width="2.92659" height="5.69168" fill="black"/>
<rect x="8.75745" y="30.3576" width="2.92659" height="5.69168" fill="black"/>
<rect x="18.5128" y="18.9741" width="3.09276" height="2.84584" fill="black"/>
<rect x="21.4395" y="21.8202" width="5.85319" height="2.84584" fill="black"/>
<rect x="24.366" y="36.0493" width="2.92659" height="2.84584" fill="black"/>
<rect x="12.6596" y="36.0493" width="2.92659" height="2.84584" fill="black"/>
<rect x="15.5862" y="38.8951" width="8.77978" height="2.84584" fill="black"/>
<rect x="12.6596" y="21.8202" width="2.92659" height="2.84584" fill="black"/>
<rect x="15.5862" y="18.9741" width="2.92659" height="2.84584" fill="black"/>
</svg>
