<svg width="95" height="51" viewBox="0 0 95 51" fill="none" xmlns="http://www.w3.org/2000/svg">
<path d="M89.2921 10.1668H86.9484H84.6102H82.2665V12.5049H79.9283V14.8486H77.579V17.1868V19.5362H75.2408H72.8971V21.8687H70.5589V19.5362H68.2208H65.877V17.1868H63.5389V14.8486H61.1951H58.857V12.5049H56.5076H54.1751H51.8257H49.4876V10.1668V7.823V5.48486V3.14673H47.1439V5.48486H44.8057H42.462V7.823H40.1238V10.1668H37.7744H35.4419H33.1038V12.5049H30.7544H28.4219H26.0725V14.8486H23.7344H21.3906H19.0525V17.1868H16.7087H14.3706V19.5362H12.0212V21.8687H9.6831H7.33934V24.2181V26.5562V28.8999V31.2381V33.5818H9.6831H12.0212V35.92H14.3706H16.7087V38.2581H19.0525V40.6019H21.3906H23.7344V42.94H26.0725H28.4219H30.7544H33.1038H35.4419V45.2894H37.7744V47.6275H40.1238H42.462V45.2894V42.94H44.8057H47.1439H49.4876H51.8257H54.1751V40.6019H56.5076H58.857V38.2581H61.1951H63.5389V35.92H65.877H68.2208V33.5818H70.5589H72.8971V35.92H75.2408V38.2581H77.579V40.6019H79.9283H82.2665H84.6102H86.9484H89.2921H91.6303V38.2581V35.92H89.2921V33.5818H86.9484V31.2381H84.6102V28.8999H82.2665H79.9283V26.5562H82.2665H84.6102V24.2181H86.9484V21.8687V19.5362H89.2921V17.1868V14.8486H91.6303V12.5049V10.1668H89.2921Z" fill="#5DB1BF"/>
<path d="M45.2723 50.4321H34.9698V48.094H32.6317V45.7502H20.9298V43.4121H16.2479V41.0684H13.9041V38.7302H9.22225V36.3921H4.52911V19.0584H9.21101V16.7203H11.5548V14.3765H16.2367V12.0384H23.2567V9.69462H30.288V7.35648H37.308V5.01273H39.6461V2.67459H44.328V0.336456H52.2923V9.69462H61.6617V12.0384H66.3436V14.3765H68.6817V16.7203H74.7631V12.0384H77.1069V9.69462H79.445V7.35648H94.4349V17.6589H92.0968V22.3408H89.753V27.0227H87.4149V28.4222H89.753V30.7659H92.0968V33.1041H94.4349V43.4065H74.7631V41.0627H72.425V38.7246H66.3436V41.0627H61.6617V43.4065H56.9798V45.7446H45.2666V50.4265L45.2723 50.4321ZM38.2522 42.4735H39.6517V40.1297H51.3649V37.7916H56.0468V35.4478H60.7287V33.1097H65.4106V30.7716H75.7074V33.1097H78.0511V35.4478H80.3893V37.7916H86.4819V36.3921H84.1381V34.0483H81.8V31.7102H77.1181V23.7459H81.8V21.4078H84.1381V16.7259H86.4819V12.977H85.0712V15.3151H82.733V17.6589H80.3893V22.3408H75.7074V24.6789H67.7487V22.3408H63.0668V19.997H60.7287V17.6589H56.0468V15.3151H46.6774V8.29511H45.2666V10.6332H42.9285V12.977H35.9085V15.3151H28.8772V17.6589H21.8572V19.997H17.1753V22.3408H14.8315V24.6789H10.1496V30.7716H14.8315V33.1097H19.5134V35.4478H21.8572V37.7916H26.5391V40.1297H38.241V42.4735H38.2522Z" fill="black"/>
<path d="M91.6303 38.2581H89.2922V40.6019H91.6303V38.2581Z" fill="#8AF0FF"/>
<path d="M91.6303 35.92H89.2922V38.2581H91.6303V35.92Z" fill="#8AF0FF"/>
<path d="M91.6303 12.5049H89.2922V14.8487H91.6303V12.5049Z" fill="#8AF0FF"/>
<path d="M91.6303 10.1667H89.2922V12.5049H91.6303V10.1667Z" fill="#8AF0FF"/>
<path d="M89.2922 38.2581H86.9485V40.6019H89.2922V38.2581Z" fill="#8AF0FF"/>
<path d="M89.2922 35.92H86.9485V38.2581H89.2922V35.92Z" fill="#8AF0FF"/>
<path d="M89.2922 33.5818H86.9485V35.9199H89.2922V33.5818Z" fill="#8AF0FF"/>
<path d="M89.2922 17.1868H86.9485V19.5306H89.2922V17.1868Z" fill="#8AF0FF"/>
<path d="M89.2922 14.8486H86.9485V17.1867H89.2922V14.8486Z" fill="#8AF0FF"/>
<path d="M89.2922 12.5049H86.9485V14.8487H89.2922V12.5049Z" fill="#8AF0FF"/>
<path d="M89.2922 10.1667H86.9485V12.5049H89.2922V10.1667Z" fill="#8AF0FF"/>
<path d="M86.9484 38.2581H84.6103V40.6019H86.9484V38.2581Z" fill="#8AF0FF"/>
<path d="M86.9484 35.92H84.6103V38.2581H86.9484V35.92Z" fill="#8AF0FF"/>
<path d="M86.9484 33.5818H84.6103V35.9199H86.9484V33.5818Z" fill="#8AF0FF"/>
<path d="M86.9484 31.238H84.6103V33.5818H86.9484V31.238Z" fill="#8AF0FF"/>
<path d="M86.9484 21.8687H84.6103V24.2124H86.9484V21.8687Z" fill="#8AF0FF"/>
<path d="M86.9484 19.5362H84.6103V21.8743H86.9484V19.5362Z" fill="#8AF0FF"/>
<path d="M86.9484 17.1868H84.6103V19.5306H86.9484V17.1868Z" fill="#8AF0FF"/>
<path d="M86.9484 14.8486H84.6103V17.1867H86.9484V14.8486Z" fill="#8AF0FF"/>
<path d="M86.9484 12.5049H84.6103V14.8487H86.9484V12.5049Z" fill="#8AF0FF"/>
<path d="M86.9484 10.1667H84.6103V12.5049H86.9484V10.1667Z" fill="#8AF0FF"/>
<path d="M84.6102 38.2581H82.2665V40.6019H84.6102V38.2581Z" fill="#8AF0FF"/>
<path d="M84.6102 35.92H82.2665V38.2581H84.6102V35.92Z" fill="#8AF0FF"/>
<path d="M84.6102 33.5818H82.2665V35.9199H84.6102V33.5818Z" fill="#8AF0FF"/>
<path d="M84.6102 31.238H82.2665V33.5818H84.6102V31.238Z" fill="#8AF0FF"/>
<path d="M84.6102 28.8999H82.2665V31.238H84.6102V28.8999Z" fill="#8AF0FF"/>
<path d="M84.6102 24.218H82.2665V26.5562H84.6102V24.218Z" fill="#8AF0FF"/>
<path d="M84.6102 21.8687H82.2665V24.2124H84.6102V21.8687Z" fill="#8AF0FF"/>
<path d="M84.6102 19.5362H82.2665V21.8743H84.6102V19.5362Z" fill="#8AF0FF"/>
<path d="M84.6102 17.1868H82.2665V19.5306H84.6102V17.1868Z" fill="#8AF0FF"/>
<path d="M84.6102 14.8486H82.2665V17.1867H84.6102V14.8486Z" fill="#8AF0FF"/>
<path d="M84.6102 12.5049H82.2665V14.8487H84.6102V12.5049Z" fill="#8AF0FF"/>
<path d="M84.6102 10.1667H82.2665V12.5049H84.6102V10.1667Z" fill="#8AF0FF"/>
<path d="M82.2665 38.2581H79.9284V40.6019H82.2665V38.2581Z" fill="#8AF0FF"/>
<path d="M82.2665 35.92H79.9284V38.2581H82.2665V35.92Z" fill="#5DB1BF"/>
<path d="M82.2665 33.5818H79.9284V35.9199H82.2665V33.5818Z" fill="#8AF0FF"/>
<path d="M82.2665 31.238H79.9284V33.5818H82.2665V31.238Z" fill="#8AF0FF"/>
<path d="M82.2665 28.8999H79.9284V31.238H82.2665V28.8999Z" fill="#8AF0FF"/>
<path d="M82.2665 24.218H79.9284V26.5562H82.2665V24.218Z" fill="#8AF0FF"/>
<path d="M82.2665 21.8687H79.9284V24.2124H82.2665V21.8687Z" fill="#8AF0FF"/>
<path d="M82.2665 19.5362H79.9284V21.8743H82.2665V19.5362Z" fill="#5DB1BF"/>
<path d="M82.2665 17.1868H79.9284V19.5306H82.2665V17.1868Z" fill="#8AF0FF"/>
<path d="M82.2665 14.8486H79.9284V17.1867H82.2665V14.8486Z" fill="#8AF0FF"/>
<path d="M82.2665 12.5049H79.9284V14.8487H82.2665V12.5049Z" fill="#8AF0FF"/>
<path d="M79.9227 38.2581H77.579V40.6019H79.9227V38.2581Z" fill="#8AF0FF"/>
<path d="M79.9227 35.92H77.579V38.2581H79.9227V35.92Z" fill="#5DB1BF"/>
<path d="M79.9227 33.5818H77.579V35.9199H79.9227V33.5818Z" fill="#5DB1BF"/>
<path d="M79.9227 31.238H77.579V33.5818H79.9227V31.238Z" fill="#8AF0FF"/>
<path d="M79.9227 28.8999H77.579V31.238H79.9227V28.8999Z" fill="#8AF0FF"/>
<path d="M79.9227 26.5562H77.579V28.8999H79.9227V26.5562Z" fill="#5DB1BF"/>
<path d="M79.9227 24.218H77.579V26.5562H79.9227V24.218Z" fill="#8AF0FF"/>
<path d="M79.9227 21.8687H77.579V24.2124H79.9227V21.8687Z" fill="#5DB1BF"/>
<path d="M79.9227 19.5362H77.579V21.8743H79.9227V19.5362Z" fill="#5DB1BF"/>
<path d="M79.9227 17.1868H77.579V19.5306H79.9227V17.1868Z" fill="#8AF0FF"/>
<path d="M79.9227 14.8486H77.579V17.1867H79.9227V14.8486Z" fill="#8AF0FF"/>
<path d="M77.5791 35.92H75.2409V38.2581H77.5791V35.92Z" fill="#8AF0FF"/>
<path d="M77.5791 33.5818H75.2409V35.9199H77.5791V33.5818Z" fill="#8AF0FF"/>
<path d="M77.5791 31.238H75.2409V33.5818H77.5791V31.238Z" fill="#5DB1BF"/>
<path d="M77.5791 28.8999H75.2409V31.238H77.5791V28.8999Z" fill="#8AF0FF"/>
<path d="M77.5791 26.5562H75.2409V28.8999H77.5791V26.5562Z" fill="#5DB1BF"/>
<path d="M77.5791 24.218H75.2409V26.5562H77.5791V24.218Z" fill="#8AF0FF"/>
<path d="M77.5791 21.8687H75.2409V24.2124H77.5791V21.8687Z" fill="#5DB1BF"/>
<path d="M77.5791 19.5362H75.2409V21.8743H77.5791V19.5362Z" fill="#8AF0FF"/>
<path d="M75.2409 33.5818H72.8971V35.9199H75.2409V33.5818Z" fill="#8AF0FF"/>
<path d="M75.2409 31.238H72.8971V33.5818H75.2409V31.238Z" fill="#5DB1BF"/>
<path d="M75.2409 28.8999H72.8971V31.238H75.2409V28.8999Z" fill="#5DB1BF"/>
<path d="M75.2409 26.5562H72.8971V28.8999H75.2409V26.5562Z" fill="#5DB1BF"/>
<path d="M75.2409 24.218H72.8971V26.5562H75.2409V24.218Z" fill="#5DB1BF"/>
<path d="M75.2409 21.8687H72.8971V24.2124H75.2409V21.8687Z" fill="#5DB1BF"/>
<path d="M75.2409 19.5362H72.8971V21.8743H75.2409V19.5362Z" fill="#8AF0FF"/>
<path d="M72.8972 31.238H70.5591V33.5818H72.8972V31.238Z" fill="#5DB1BF"/>
<path d="M72.8972 28.8999H70.5591V31.238H72.8972V28.8999Z" fill="#5DB1BF"/>
<path d="M72.8972 26.5562H70.5591V28.8999H72.8972V26.5562Z" fill="#5DB1BF"/>
<path d="M72.8972 24.218H70.5591V26.5562H72.8972V24.218Z" fill="#5DB1BF"/>
<path d="M72.8972 21.8687H70.5591V24.2124H72.8972V21.8687Z" fill="#5DB1BF"/>
<path d="M70.5589 31.238H68.2208V33.5818H70.5589V31.238Z" fill="#8AF0FF"/>
<path d="M70.5589 28.8999H68.2208V31.238H70.5589V28.8999Z" fill="#8AF0FF"/>
<path d="M70.5589 26.5562H68.2208V28.8999H70.5589V26.5562Z" fill="#8AF0FF"/>
<path d="M70.5589 24.218H68.2208V26.5562H70.5589V24.218Z" fill="#8AF0FF"/>
<path d="M70.5589 21.8687H68.2208V24.2124H70.5589V21.8687Z" fill="#8AF0FF"/>
<path d="M70.5589 19.5362H68.2208V21.8743H70.5589V19.5362Z" fill="#8AF0FF"/>
<path d="M68.2208 33.5818H65.8771V35.9199H68.2208V33.5818Z" fill="#8AF0FF"/>
<path d="M68.2208 31.238H65.8771V33.5818H68.2208V31.238Z" fill="#8AF0FF"/>
<path d="M68.2208 28.8999H65.8771V31.238H68.2208V28.8999Z" fill="#8AF0FF"/>
<path d="M68.2208 26.5562H65.8771V28.8999H68.2208V26.5562Z" fill="#8AF0FF"/>
<path d="M68.2208 24.218H65.8771V26.5562H68.2208V24.218Z" fill="#5DB1BF"/>
<path d="M68.2208 21.8687H65.8771V24.2124H68.2208V21.8687Z" fill="#8AF0FF"/>
<path d="M68.2208 19.5362H65.8771V21.8743H68.2208V19.5362Z" fill="#8AF0FF"/>
<path d="M65.8771 33.5818H63.5389V35.9199H65.8771V33.5818Z" fill="#8AF0FF"/>
<path d="M65.8771 31.238H63.5389V33.5818H65.8771V31.238Z" fill="#8AF0FF"/>
<path d="M65.8771 28.8999H63.5389V31.238H65.8771V28.8999Z" fill="#8AF0FF"/>
<path d="M65.8771 26.5562H63.5389V28.8999H65.8771V26.5562Z" fill="#8AF0FF"/>
<path d="M65.8771 24.218H63.5389V26.5562H65.8771V24.218Z" fill="#8AF0FF"/>
<path d="M65.8771 21.8687H63.5389V24.2124H65.8771V21.8687Z" fill="#8AF0FF"/>
<path d="M65.8771 19.5362H63.5389V21.8743H65.8771V19.5362Z" fill="#8AF0FF"/>
<path d="M65.8771 17.1868H63.5389V19.5306H65.8771V17.1868Z" fill="#8AF0FF"/>
<path d="M63.539 35.92H61.1952V38.2581H63.539V35.92Z" fill="#8AF0FF"/>
<path d="M63.539 33.5818H61.1952V35.9199H63.539V33.5818Z" fill="#8AF0FF"/>
<path d="M63.539 31.238H61.1952V33.5818H63.539V31.238Z" fill="#8AF0FF"/>
<path d="M63.539 28.8999H61.1952V31.238H63.539V28.8999Z" fill="#5DB1BF"/>
<path d="M63.539 26.5562H61.1952V28.8999H63.539V26.5562Z" fill="#8AF0FF"/>
<path d="M63.539 24.218H61.1952V26.5562H63.539V24.218Z" fill="#8AF0FF"/>
<path d="M63.539 21.8687H61.1952V24.2124H63.539V21.8687Z" fill="#8AF0FF"/>
<path d="M63.539 19.5362H61.1952V21.8743H63.539V19.5362Z" fill="#8AF0FF"/>
<path d="M63.539 17.1868H61.1952V19.5306H63.539V17.1868Z" fill="#8AF0FF"/>
<path d="M63.539 14.8486H61.1952V17.1867H63.539V14.8486Z" fill="#8AF0FF"/>
<path d="M61.1952 35.92H58.8571V38.2581H61.1952V35.92Z" fill="#8AF0FF"/>
<path d="M61.1952 33.5818H58.8571V35.9199H61.1952V33.5818Z" fill="#8AF0FF"/>
<path d="M61.1952 31.238H58.8571V33.5818H61.1952V31.238Z" fill="#8AF0FF"/>
<path d="M61.1952 28.8999H58.8571V31.238H61.1952V28.8999Z" fill="#8AF0FF"/>
<path d="M61.1952 26.5562H58.8571V28.8999H61.1952V26.5562Z" fill="#8AF0FF"/>
<path d="M61.1952 24.218H58.8571V26.5562H61.1952V24.218Z" fill="#8AF0FF"/>
<path d="M61.1952 21.8687H58.8571V24.2124H61.1952V21.8687Z" fill="#8AF0FF"/>
<path d="M61.1952 19.5362H58.8571V21.8743H61.1952V19.5362Z" fill="#8AF0FF"/>
<path d="M61.1952 17.1868H58.8571V19.5306H61.1952V17.1868Z" fill="#8AF0FF"/>
<path d="M61.1952 14.8486H58.8571V17.1867H61.1952V14.8486Z" fill="#8AF0FF"/>
<path d="M58.8515 38.2581H56.5077V40.6019H58.8515V38.2581Z" fill="#8AF0FF"/>
<path d="M58.8515 35.92H56.5077V38.2581H58.8515V35.92Z" fill="#8AF0FF"/>
<path d="M58.8515 33.5818H56.5077V35.9199H58.8515V33.5818Z" fill="#8AF0FF"/>
<path d="M58.8515 31.238H56.5077V33.5818H58.8515V31.238Z" fill="#8AF0FF"/>
<path d="M58.8515 28.8999H56.5077V31.238H58.8515V28.8999Z" fill="#8AF0FF"/>
<path d="M58.8515 26.5562H56.5077V28.8999H58.8515V26.5562Z" fill="#8AF0FF"/>
<path d="M58.8515 24.218H56.5077V26.5562H58.8515V24.218Z" fill="#8AF0FF"/>
<path d="M58.8515 21.8687H56.5077V24.2124H58.8515V21.8687Z" fill="#8AF0FF"/>
<path d="M58.8515 19.5362H56.5077V21.8743H58.8515V19.5362Z" fill="#5DB1BF"/>
<path d="M58.8515 17.1868H56.5077V19.5306H58.8515V17.1868Z" fill="#8AF0FF"/>
<path d="M58.8515 14.8486H56.5077V17.1867H58.8515V14.8486Z" fill="#8AF0FF"/>
<path d="M58.8515 12.5049H56.5077V14.8487H58.8515V12.5049Z" fill="#8AF0FF"/>
<path d="M56.5133 38.2581H54.1752V40.6019H56.5133V38.2581Z" fill="#8AF0FF"/>
<path d="M56.5133 35.92H54.1752V38.2581H56.5133V35.92Z" fill="#8AF0FF"/>
<path d="M56.5133 33.5818H54.1752V35.9199H56.5133V33.5818Z" fill="#5DB1BF"/>
<path d="M56.5133 31.238H54.1752V33.5818H56.5133V31.238Z" fill="#8AF0FF"/>
<path d="M56.5133 28.8999H54.1752V31.238H56.5133V28.8999Z" fill="#8AF0FF"/>
<path d="M56.5133 26.5562H54.1752V28.8999H56.5133V26.5562Z" fill="#8AF0FF"/>
<path d="M56.5133 24.218H54.1752V26.5562H56.5133V24.218Z" fill="#8AF0FF"/>
<path d="M56.5133 21.8687H54.1752V24.2124H56.5133V21.8687Z" fill="#8AF0FF"/>
<path d="M56.5133 19.5362H54.1752V21.8743H56.5133V19.5362Z" fill="#8AF0FF"/>
<path d="M56.5133 17.1868H54.1752V19.5306H56.5133V17.1868Z" fill="#8AF0FF"/>
<path d="M56.5133 14.8486H54.1752V17.1867H56.5133V14.8486Z" fill="#8AF0FF"/>
<path d="M56.5133 12.5049H54.1752V14.8487H56.5133V12.5049Z" fill="#8AF0FF"/>
<path d="M54.1695 40.6018H51.8258V42.94H54.1695V40.6018Z" fill="#8AF0FF"/>
<path d="M54.1695 38.2581H51.8258V40.6019H54.1695V38.2581Z" fill="#8AF0FF"/>
<path d="M54.1695 35.92H51.8258V38.2581H54.1695V35.92Z" fill="#8AF0FF"/>
<path d="M54.1695 33.5818H51.8258V35.9199H54.1695V33.5818Z" fill="#8AF0FF"/>
<path d="M54.1695 31.238H51.8258V33.5818H54.1695V31.238Z" fill="#8AF0FF"/>
<path d="M54.1695 28.8999H51.8258V31.238H54.1695V28.8999Z" fill="#8AF0FF"/>
<path d="M54.1695 26.5562H51.8258V28.8999H54.1695V26.5562Z" fill="#8AF0FF"/>
<path d="M54.1695 24.218H51.8258V26.5562H54.1695V24.218Z" fill="#8AF0FF"/>
<path d="M54.1695 21.8687H51.8258V24.2124H54.1695V21.8687Z" fill="#8AF0FF"/>
<path d="M54.1695 19.5362H51.8258V21.8743H54.1695V19.5362Z" fill="#8AF0FF"/>
<path d="M54.1695 17.1868H51.8258V19.5306H54.1695V17.1868Z" fill="#8AF0FF"/>
<path d="M54.1695 14.8486H51.8258V17.1867H54.1695V14.8486Z" fill="#8AF0FF"/>
<path d="M54.1695 12.5049H51.8258V14.8487H54.1695V12.5049Z" fill="#8AF0FF"/>
<path d="M51.8258 40.6018H49.4876V42.94H51.8258V40.6018Z" fill="#8AF0FF"/>
<path d="M51.8258 38.2581H49.4876V40.6019H51.8258V38.2581Z" fill="#8AF0FF"/>
<path d="M51.8258 35.92H49.4876V38.2581H51.8258V35.92Z" fill="#8AF0FF"/>
<path d="M51.8258 33.5818H49.4876V35.9199H51.8258V33.5818Z" fill="#8AF0FF"/>
<path d="M51.8258 31.238H49.4876V33.5818H51.8258V31.238Z" fill="#8AF0FF"/>
<path d="M51.8258 28.8999H49.4876V31.238H51.8258V28.8999Z" fill="#8AF0FF"/>
<path d="M51.8258 26.5562H49.4876V28.8999H51.8258V26.5562Z" fill="#8AF0FF"/>
<path d="M51.8258 24.218H49.4876V26.5562H51.8258V24.218Z" fill="#8AF0FF"/>
<path d="M51.8258 21.8687H49.4876V24.2124H51.8258V21.8687Z" fill="#8AF0FF"/>
<path d="M51.8258 19.5362H49.4876V21.8743H51.8258V19.5362Z" fill="#8AF0FF"/>
<path d="M51.8258 17.1868H49.4876V19.5306H51.8258V17.1868Z" fill="#8AF0FF"/>
<path d="M51.8258 14.8486H49.4876V17.1867H51.8258V14.8486Z" fill="#8AF0FF"/>
<path d="M51.8258 12.5049H49.4876V14.8487H51.8258V12.5049Z" fill="#8AF0FF"/>
<path d="M49.4876 40.6018H47.1439V42.94H49.4876V40.6018Z" fill="#8AF0FF"/>
<path d="M49.4876 38.2581H47.1439V40.6019H49.4876V38.2581Z" fill="#8AF0FF"/>
<path d="M49.4876 35.92H47.1439V38.2581H49.4876V35.92Z" fill="#5DB1BF"/>
<path d="M49.4876 33.5818H47.1439V35.9199H49.4876V33.5818Z" fill="#8AF0FF"/>
<path d="M49.4876 31.238H47.1439V33.5818H49.4876V31.238Z" fill="#8AF0FF"/>
<path d="M49.4876 28.8999H47.1439V31.238H49.4876V28.8999Z" fill="#5DB1BF"/>
<path d="M49.4876 26.5562H47.1439V28.8999H49.4876V26.5562Z" fill="#5DB1BF"/>
<path d="M49.4876 24.218H47.1439V26.5562H49.4876V24.218Z" fill="#5DB1BF"/>
<path d="M49.4876 21.8687H47.1439V24.2124H49.4876V21.8687Z" fill="#5DB1BF"/>
<path d="M49.4876 19.5362H47.1439V21.8743H49.4876V19.5362Z" fill="#5DB1BF"/>
<path d="M49.4876 17.1868H47.1439V19.5306H49.4876V17.1868Z" fill="#5DB1BF"/>
<path d="M49.4876 14.8486H47.1439V17.1867H49.4876V14.8486Z" fill="#8AF0FF"/>
<path d="M49.4876 12.5049H47.1439V14.8487H49.4876V12.5049Z" fill="#8AF0FF"/>
<path d="M49.4876 10.1667H47.1439V12.5049H49.4876V10.1667Z" fill="#5DB1BF"/>
<path d="M49.4876 7.823H47.1439V10.1668H49.4876V7.823Z" fill="#8AF0FF"/>
<path d="M49.4876 5.4848H47.1439V7.82294H49.4876V5.4848Z" fill="#8AF0FF"/>
<path d="M49.4876 3.14673H47.1439V5.48486H49.4876V3.14673Z" fill="#8AF0FF"/>
<path d="M47.144 40.6018H44.8058V42.94H47.144V40.6018Z" fill="#8AF0FF"/>
<path d="M47.144 38.2581H44.8058V40.6019H47.144V38.2581Z" fill="#8AF0FF"/>
<path d="M47.144 35.92H44.8058V38.2581H47.144V35.92Z" fill="#8AF0FF"/>
<path d="M47.144 33.5818H44.8058V35.9199H47.144V33.5818Z" fill="#8AF0FF"/>
<path d="M47.144 31.238H44.8058V33.5818H47.144V31.238Z" fill="#8AF0FF"/>
<path d="M47.144 28.8999H44.8058V31.238H47.144V28.8999Z" fill="#5DB1BF"/>
<path d="M47.144 26.5562H44.8058V28.8999H47.144V26.5562Z" fill="#5DB1BF"/>
<path d="M47.144 24.218H44.8058V26.5562H47.144V24.218Z" fill="#5DB1BF"/>
<path d="M47.144 21.8687H44.8058V24.2124H47.144V21.8687Z" fill="#5DB1BF"/>
<path d="M47.144 19.5362H44.8058V21.8743H47.144V19.5362Z" fill="#5DB1BF"/>
<path d="M47.144 17.1868H44.8058V19.5306H47.144V17.1868Z" fill="#5DB1BF"/>
<path d="M47.144 14.8486H44.8058V17.1867H47.144V14.8486Z" fill="#8AF0FF"/>
<path d="M47.144 12.5049H44.8058V14.8487H47.144V12.5049Z" fill="#8AF0FF"/>
<path d="M47.144 10.1667H44.8058V12.5049H47.144V10.1667Z" fill="#5DB1BF"/>
<path d="M47.144 7.823H44.8058V10.1668H47.144V7.823Z" fill="#8AF0FF"/>
<path d="M47.144 5.4848H44.8058V7.82294H47.144V5.4848Z" fill="#8AF0FF"/>
<path d="M44.8058 40.6018H42.4621V42.94H44.8058V40.6018Z" fill="#8AF0FF"/>
<path d="M44.8058 38.2581H42.4621V40.6019H44.8058V38.2581Z" fill="#8AF0FF"/>
<path d="M44.8058 35.92H42.4621V38.2581H44.8058V35.92Z" fill="#8AF0FF"/>
<path d="M44.8058 33.5818H42.4621V35.9199H44.8058V33.5818Z" fill="#8AF0FF"/>
<path d="M44.8058 31.238H42.4621V33.5818H44.8058V31.238Z" fill="#8AF0FF"/>
<path d="M44.8058 28.8999H42.4621V31.238H44.8058V28.8999Z" fill="#8AF0FF"/>
<path d="M44.8058 26.5562H42.4621V28.8999H44.8058V26.5562Z" fill="#5DB1BF"/>
<path d="M44.8058 24.218H42.4621V26.5562H44.8058V24.218Z" fill="#5DB1BF"/>
<path d="M44.8058 21.8687H42.4621V24.2124H44.8058V21.8687Z" fill="#5DB1BF"/>
<path d="M44.8058 19.5362H42.4621V21.8743H44.8058V19.5362Z" fill="#5DB1BF"/>
<path d="M44.8058 17.1868H42.4621V19.5306H44.8058V17.1868Z" fill="#8AF0FF"/>
<path d="M44.8058 14.8486H42.4621V17.1867H44.8058V14.8486Z" fill="#8AF0FF"/>
<path d="M44.8058 12.5049H42.4621V14.8487H44.8058V12.5049Z" fill="#8AF0FF"/>
<path d="M44.8058 10.1667H42.4621V12.5049H44.8058V10.1667Z" fill="#5DB1BF"/>
<path d="M44.8058 7.823H42.4621V10.1668H44.8058V7.823Z" fill="#8AF0FF"/>
<path d="M44.8058 5.4848H42.4621V7.82294H44.8058V5.4848Z" fill="#8AF0FF"/>
<path d="M42.462 45.2893H40.1239V47.6275H42.462V45.2893Z" fill="#8AF0FF"/>
<path d="M42.462 42.94H40.1239V45.2838H42.462V42.94Z" fill="#5DB1BF"/>
<path d="M42.462 40.6018H40.1239V42.94H42.462V40.6018Z" fill="#8AF0FF"/>
<path d="M42.462 38.2581H40.1239V40.6019H42.462V38.2581Z" fill="#8AF0FF"/>
<path d="M42.462 35.92H40.1239V38.2581H42.462V35.92Z" fill="#8AF0FF"/>
<path d="M42.462 33.5818H40.1239V35.9199H42.462V33.5818Z" fill="#8AF0FF"/>
<path d="M42.462 31.238H40.1239V33.5818H42.462V31.238Z" fill="#8AF0FF"/>
<path d="M42.462 28.8999H40.1239V31.238H42.462V28.8999Z" fill="#8AF0FF"/>
<path d="M42.462 26.5562H40.1239V28.8999H42.462V26.5562Z" fill="#5DB1BF"/>
<path d="M42.462 24.218H40.1239V26.5562H42.462V24.218Z" fill="#5DB1BF"/>
<path d="M42.462 21.8687H40.1239V24.2124H42.462V21.8687Z" fill="#5DB1BF"/>
<path d="M42.462 19.5362H40.1239V21.8743H42.462V19.5362Z" fill="#5DB1BF"/>
<path d="M42.462 17.1868H40.1239V19.5306H42.462V17.1868Z" fill="#8AF0FF"/>
<path d="M42.462 14.8486H40.1239V17.1867H42.462V14.8486Z" fill="#8AF0FF"/>
<path d="M42.462 12.5049H40.1239V14.8487H42.462V12.5049Z" fill="#8AF0FF"/>
<path d="M42.462 10.1667H40.1239V12.5049H42.462V10.1667Z" fill="#5DB1BF"/>
<path d="M42.462 7.823H40.1239V10.1668H42.462V7.823Z" fill="#8AF0FF"/>
<path d="M40.1183 45.2893H37.7745V47.6275H40.1183V45.2893Z" fill="#8AF0FF"/>
<path d="M40.1183 42.94H37.7745V45.2838H40.1183V42.94Z" fill="#5DB1BF"/>
<path d="M40.1183 40.6018H37.7745V42.94H40.1183V40.6018Z" fill="#8AF0FF"/>
<path d="M40.1183 38.2581H37.7745V40.6019H40.1183V38.2581Z" fill="#8AF0FF"/>
<path d="M40.1183 35.92H37.7745V38.2581H40.1183V35.92Z" fill="#8AF0FF"/>
<path d="M40.1183 33.5818H37.7745V35.9199H40.1183V33.5818Z" fill="#8AF0FF"/>
<path d="M40.1183 31.238H37.7745V33.5818H40.1183V31.238Z" fill="#8AF0FF"/>
<path d="M40.1183 28.8999H37.7745V31.238H40.1183V28.8999Z" fill="#8AF0FF"/>
<path d="M40.1183 26.5562H37.7745V28.8999H40.1183V26.5562Z" fill="#8AF0FF"/>
<path d="M40.1183 24.218H37.7745V26.5562H40.1183V24.218Z" fill="#5DB1BF"/>
<path d="M40.1183 21.8687H37.7745V24.2124H40.1183V21.8687Z" fill="#5DB1BF"/>
<path d="M40.1183 19.5362H37.7745V21.8743H40.1183V19.5362Z" fill="#8AF0FF"/>
<path d="M40.1183 17.1868H37.7745V19.5306H40.1183V17.1868Z" fill="#8AF0FF"/>
<path d="M40.1183 14.8486H37.7745V17.1867H40.1183V14.8486Z" fill="#8AF0FF"/>
<path d="M40.1183 12.5049H37.7745V14.8487H40.1183V12.5049Z" fill="#8AF0FF"/>
<path d="M40.1183 10.1667H37.7745V12.5049H40.1183V10.1667Z" fill="#5DB1BF"/>
<path d="M37.7801 42.94H35.442V45.2838H37.7801V42.94Z" fill="#5DB1BF"/>
<path d="M37.7801 40.6018H35.442V42.94H37.7801V40.6018Z" fill="#8AF0FF"/>
<path d="M37.7801 38.2581H35.442V40.6019H37.7801V38.2581Z" fill="#8AF0FF"/>
<path d="M37.7801 35.92H35.442V38.2581H37.7801V35.92Z" fill="#8AF0FF"/>
<path d="M37.7801 33.5818H35.442V35.9199H37.7801V33.5818Z" fill="#8AF0FF"/>
<path d="M37.7801 31.238H35.442V33.5818H37.7801V31.238Z" fill="#8AF0FF"/>
<path d="M37.7801 28.8999H35.442V31.238H37.7801V28.8999Z" fill="#8AF0FF"/>
<path d="M37.7801 26.5562H35.442V28.8999H37.7801V26.5562Z" fill="#8AF0FF"/>
<path d="M37.7801 24.218H35.442V26.5562H37.7801V24.218Z" fill="#8AF0FF"/>
<path d="M37.7801 21.8687H35.442V24.2124H37.7801V21.8687Z" fill="#8AF0FF"/>
<path d="M37.7801 19.5362H35.442V21.8743H37.7801V19.5362Z" fill="#8AF0FF"/>
<path d="M37.7801 17.1868H35.442V19.5306H37.7801V17.1868Z" fill="#8AF0FF"/>
<path d="M37.7801 14.8486H35.442V17.1867H37.7801V14.8486Z" fill="#8AF0FF"/>
<path d="M37.7801 12.5049H35.442V14.8487H37.7801V12.5049Z" fill="#8AF0FF"/>
<path d="M37.7801 10.1667H35.442V12.5049H37.7801V10.1667Z" fill="#5DB1BF"/>
<path d="M35.442 40.6018H33.1039V42.94H35.442V40.6018Z" fill="#8AF0FF"/>
<path d="M35.442 38.2581H33.1039V40.6019H35.442V38.2581Z" fill="#8AF0FF"/>
<path d="M35.442 35.92H33.1039V38.2581H35.442V35.92Z" fill="#8AF0FF"/>
<path d="M35.442 33.5818H33.1039V35.9199H35.442V33.5818Z" fill="#8AF0FF"/>
<path d="M35.442 31.238H33.1039V33.5818H35.442V31.238Z" fill="#5DB1BF"/>
<path d="M35.442 28.8999H33.1039V31.238H35.442V28.8999Z" fill="#8AF0FF"/>
<path d="M35.442 26.5562H33.1039V28.8999H35.442V26.5562Z" fill="#8AF0FF"/>
<path d="M35.442 24.218H33.1039V26.5562H35.442V24.218Z" fill="#8AF0FF"/>
<path d="M35.442 21.8687H33.1039V24.2124H35.442V21.8687Z" fill="#8AF0FF"/>
<path d="M35.442 19.5362H33.1039V21.8743H35.442V19.5362Z" fill="#8AF0FF"/>
<path d="M35.442 17.1868H33.1039V19.5306H35.442V17.1868Z" fill="#5DB1BF"/>
<path d="M35.442 14.8486H33.1039V17.1867H35.442V14.8486Z" fill="#8AF0FF"/>
<path d="M35.442 12.5049H33.1039V14.8487H35.442V12.5049Z" fill="#8AF0FF"/>
<path d="M35.442 10.1667H33.1039V12.5049H35.442V10.1667Z" fill="#5DB1BF"/>
<path d="M33.0982 40.6018H30.7545V42.94H33.0982V40.6018Z" fill="#8AF0FF"/>
<path d="M33.0982 38.2581H30.7545V40.6019H33.0982V38.2581Z" fill="#8AF0FF"/>
<path d="M33.0982 35.92H30.7545V38.2581H33.0982V35.92Z" fill="#8AF0FF"/>
<path d="M33.0982 33.5818H30.7545V35.9199H33.0982V33.5818Z" fill="#8AF0FF"/>
<path d="M33.0982 31.238H30.7545V33.5818H33.0982V31.238Z" fill="#8AF0FF"/>
<path d="M33.0982 28.8999H30.7545V31.238H33.0982V28.8999Z" fill="#8AF0FF"/>
<path d="M33.0982 26.5562H30.7545V28.8999H33.0982V26.5562Z" fill="#5DB1BF"/>
<path d="M33.0982 24.218H30.7545V26.5562H33.0982V24.218Z" fill="#8AF0FF"/>
<path d="M33.0982 21.8687H30.7545V24.2124H33.0982V21.8687Z" fill="#8AF0FF"/>
<path d="M33.0982 19.5362H30.7545V21.8743H33.0982V19.5362Z" fill="#8AF0FF"/>
<path d="M33.0982 17.1868H30.7545V19.5306H33.0982V17.1868Z" fill="#8AF0FF"/>
<path d="M33.0982 14.8486H30.7545V17.1867H33.0982V14.8486Z" fill="#8AF0FF"/>
<path d="M33.0982 12.5049H30.7545V14.8487H33.0982V12.5049Z" fill="#8AF0FF"/>
<path d="M30.7601 40.6018H28.422V42.94H30.7601V40.6018Z" fill="#8AF0FF"/>
<path d="M30.7601 38.2581H28.422V40.6019H30.7601V38.2581Z" fill="#8AF0FF"/>
<path d="M30.7601 35.92H28.422V38.2581H30.7601V35.92Z" fill="#8AF0FF"/>
<path d="M30.7601 33.5818H28.422V35.9199H30.7601V33.5818Z" fill="#8AF0FF"/>
<path d="M30.7601 31.238H28.422V33.5818H30.7601V31.238Z" fill="#8AF0FF"/>
<path d="M30.7601 28.8999H28.422V31.238H30.7601V28.8999Z" fill="#8AF0FF"/>
<path d="M30.7601 26.5562H28.422V28.8999H30.7601V26.5562Z" fill="#8AF0FF"/>
<path d="M30.7601 24.218H28.422V26.5562H30.7601V24.218Z" fill="#8AF0FF"/>
<path d="M30.7601 21.8687H28.422V24.2124H30.7601V21.8687Z" fill="#8AF0FF"/>
<path d="M30.7601 19.5362H28.422V21.8743H30.7601V19.5362Z" fill="#8AF0FF"/>
<path d="M30.7601 17.1868H28.422V19.5306H30.7601V17.1868Z" fill="#8AF0FF"/>
<path d="M30.7601 14.8486H28.422V17.1867H30.7601V14.8486Z" fill="#5DB1BF"/>
<path d="M30.7601 12.5049H28.422V14.8487H30.7601V12.5049Z" fill="#8AF0FF"/>
<path d="M28.4163 40.6018H26.0726V42.94H28.4163V40.6018Z" fill="#8AF0FF"/>
<path d="M28.4163 38.2581H26.0726V40.6019H28.4163V38.2581Z" fill="#8AF0FF"/>
<path d="M28.4163 35.92H26.0726V38.2581H28.4163V35.92Z" fill="#5DB1BF"/>
<path d="M28.4163 33.5818H26.0726V35.9199H28.4163V33.5818Z" fill="#8AF0FF"/>
<path d="M28.4163 31.238H26.0726V33.5818H28.4163V31.238Z" fill="#8AF0FF"/>
<path d="M28.4163 28.8999H26.0726V31.238H28.4163V28.8999Z" fill="#8AF0FF"/>
<path d="M28.4163 26.5562H26.0726V28.8999H28.4163V26.5562Z" fill="#8AF0FF"/>
<path d="M28.4163 24.218H26.0726V26.5562H28.4163V24.218Z" fill="#8AF0FF"/>
<path d="M28.4163 21.8687H26.0726V24.2124H28.4163V21.8687Z" fill="#8AF0FF"/>
<path d="M28.4163 19.5362H26.0726V21.8743H28.4163V19.5362Z" fill="#8AF0FF"/>
<path d="M28.4163 17.1868H26.0726V19.5306H28.4163V17.1868Z" fill="#8AF0FF"/>
<path d="M28.4163 14.8486H26.0726V17.1867H28.4163V14.8486Z" fill="#8AF0FF"/>
<path d="M28.4163 12.5049H26.0726V14.8487H28.4163V12.5049Z" fill="#8AF0FF"/>
<path d="M26.0726 40.6018H23.7345V42.94H26.0726V40.6018Z" fill="#8AF0FF"/>
<path d="M26.0726 38.2581H23.7345V40.6019H26.0726V38.2581Z" fill="#8AF0FF"/>
<path d="M26.0726 35.92H23.7345V38.2581H26.0726V35.92Z" fill="#8AF0FF"/>
<path d="M26.0726 33.5818H23.7345V35.9199H26.0726V33.5818Z" fill="#8AF0FF"/>
<path d="M26.0726 31.238H23.7345V33.5818H26.0726V31.238Z" fill="#8AF0FF"/>
<path d="M26.0726 28.8999H23.7345V31.238H26.0726V28.8999Z" fill="#8AF0FF"/>
<path d="M26.0726 26.5562H23.7345V28.8999H26.0726V26.5562Z" fill="#8AF0FF"/>
<path d="M26.0726 24.218H23.7345V26.5562H26.0726V24.218Z" fill="#8AF0FF"/>
<path d="M26.0726 21.8687H23.7345V24.2124H26.0726V21.8687Z" fill="#0F2427"/>
<path d="M26.0726 19.5362H23.7345V21.8743H26.0726V19.5362Z" fill="#0F2427"/>
<path d="M26.0726 17.1868H23.7345V19.5306H26.0726V17.1868Z" fill="#8AF0FF"/>
<path d="M26.0726 14.8486H23.7345V17.1867H26.0726V14.8486Z" fill="#8AF0FF"/>
<path d="M23.7344 38.2581H21.3907V40.6019H23.7344V38.2581Z" fill="#8AF0FF"/>
<path d="M23.7344 35.92H21.3907V38.2581H23.7344V35.92Z" fill="#8AF0FF"/>
<path d="M23.7344 33.5818H21.3907V35.9199H23.7344V33.5818Z" fill="#8AF0FF"/>
<path d="M23.7344 31.238H21.3907V33.5818H23.7344V31.238Z" fill="#8AF0FF"/>
<path d="M23.7344 28.8999H21.3907V31.238H23.7344V28.8999Z" fill="#8AF0FF"/>
<path d="M23.7344 26.5562H21.3907V28.8999H23.7344V26.5562Z" fill="#8AF0FF"/>
<path d="M23.7344 24.218H21.3907V26.5562H23.7344V24.218Z" fill="#8AF0FF"/>
<path d="M23.7344 21.8687H21.3907V24.2124H23.7344V21.8687Z" fill="#0F2427"/>
<path d="M23.7344 19.5362H21.3907V21.8743H23.7344V19.5362Z" fill="#0F2427"/>
<path d="M23.7344 17.1868H21.3907V19.5306H23.7344V17.1868Z" fill="#8AF0FF"/>
<path d="M23.7344 14.8486H21.3907V17.1867H23.7344V14.8486Z" fill="#8AF0FF"/>
<path d="M21.3907 38.2581H19.0526V40.6019H21.3907V38.2581Z" fill="#8AF0FF"/>
<path d="M21.3907 35.92H19.0526V38.2581H21.3907V35.92Z" fill="#8AF0FF"/>
<path d="M21.3907 33.5818H19.0526V35.9199H21.3907V33.5818Z" fill="#8AF0FF"/>
<path d="M21.3907 31.238H19.0526V33.5818H21.3907V31.238Z" fill="#8AF0FF"/>
<path d="M21.3907 28.8999H19.0526V31.238H21.3907V28.8999Z" fill="#8AF0FF"/>
<path d="M21.3907 26.5562H19.0526V28.8999H21.3907V26.5562Z" fill="#8AF0FF"/>
<path d="M21.3907 24.218H19.0526V26.5562H21.3907V24.218Z" fill="#8AF0FF"/>
<path d="M21.3907 21.8687H19.0526V24.2124H21.3907V21.8687Z" fill="#8AF0FF"/>
<path d="M21.3907 19.5362H19.0526V21.8743H21.3907V19.5362Z" fill="#8AF0FF"/>
<path d="M21.3907 17.1868H19.0526V19.5306H21.3907V17.1868Z" fill="#8AF0FF"/>
<path d="M21.3907 14.8486H19.0526V17.1867H21.3907V14.8486Z" fill="#8AF0FF"/>
<path d="M19.0526 35.92H16.7088V38.2581H19.0526V35.92Z" fill="#8AF0FF"/>
<path d="M19.0526 33.5818H16.7088V35.9199H19.0526V33.5818Z" fill="#8AF0FF"/>
<path d="M19.0526 31.238H16.7088V33.5818H19.0526V31.238Z" fill="#8AF0FF"/>
<path d="M19.0526 28.8999H16.7088V31.238H19.0526V28.8999Z" fill="#8AF0FF"/>
<path d="M19.0526 26.5562H16.7088V28.8999H19.0526V26.5562Z" fill="#8AF0FF"/>
<path d="M19.0526 24.218H16.7088V26.5562H19.0526V24.218Z" fill="#8AF0FF"/>
<path d="M19.0526 21.8687H16.7088V24.2124H19.0526V21.8687Z" fill="#8AF0FF"/>
<path d="M19.0526 19.5362H16.7088V21.8743H19.0526V19.5362Z" fill="#8AF0FF"/>
<path d="M19.0526 17.1868H16.7088V19.5306H19.0526V17.1868Z" fill="#8AF0FF"/>
<path d="M16.7088 33.5818H14.3707V35.9199H16.7088V33.5818Z" fill="#8AF0FF"/>
<path d="M16.7088 31.238H14.3707V33.5818H16.7088V31.238Z" fill="#8AF0FF"/>
<path d="M16.7088 28.8999H14.3707V31.238H16.7088V28.8999Z" fill="#8AF0FF"/>
<path d="M16.7088 26.5562H14.3707V28.8999H16.7088V26.5562Z" fill="#8AF0FF"/>
<path d="M16.7088 24.218H14.3707V26.5562H16.7088V24.218Z" fill="#8AF0FF"/>
<path d="M16.7088 21.8687H14.3707V24.2124H16.7088V21.8687Z" fill="#8AF0FF"/>
<path d="M16.7088 19.5362H14.3707V21.8743H16.7088V19.5362Z" fill="#8AF0FF"/>
<path d="M16.7088 17.1868H14.3707V19.5306H16.7088V17.1868Z" fill="#8AF0FF"/>
<path d="M14.365 33.5818H12.0213V35.9199H14.365V33.5818Z" fill="#8AF0FF"/>
<path d="M14.365 31.238H12.0213V33.5818H14.365V31.238Z" fill="#8AF0FF"/>
<path d="M14.365 28.8999H12.0213V31.238H14.365V28.8999Z" fill="#8AF0FF"/>
<path d="M14.365 26.5562H12.0213V28.8999H14.365V26.5562Z" fill="#8AF0FF"/>
<path d="M14.365 24.218H12.0213V26.5562H14.365V24.218Z" fill="#8AF0FF"/>
<path d="M14.365 21.8687H12.0213V24.2124H14.365V21.8687Z" fill="#8AF0FF"/>
<path d="M14.365 19.5362H12.0213V21.8743H14.365V19.5362Z" fill="#8AF0FF"/>
<path d="M12.0213 31.238H9.68314V33.5818H12.0213V31.238Z" fill="#8AF0FF"/>
<path d="M12.0213 28.8999H9.68314V31.238H12.0213V28.8999Z" fill="#8AF0FF"/>
<path d="M12.0213 26.5562H9.68314V28.8999H12.0213V26.5562Z" fill="#8AF0FF"/>
<path d="M12.0213 24.218H9.68314V26.5562H12.0213V24.218Z" fill="#8AF0FF"/>
<path d="M12.0213 21.8687H9.68314V24.2124H12.0213V21.8687Z" fill="#8AF0FF"/>
<path d="M9.68316 31.238H7.3394V33.5818H9.68316V31.238Z" fill="#5DB1BF"/>
<path d="M9.68316 28.8999H7.3394V31.238H9.68316V28.8999Z" fill="#5DB1BF"/>
<path d="M9.68316 26.5562H7.3394V28.8999H9.68316V26.5562Z" fill="#5DB1BF"/>
<path d="M9.68316 24.218H7.3394V26.5562H9.68316V24.218Z" fill="#5DB1BF"/>
<path d="M9.68316 21.8687H7.3394V24.2124H9.68316V21.8687Z" fill="#5DB1BF"/>
<path d="M23.7958 16.4881L18.9182 13.8794H15.9916L13.7966 15.5395L10.87 14.3537L6.72403 13.4051L5.01685 16.9624L1.35861 18.3853V22.6541L5.01685 30.0058H12.0895L15.7477 32.6145L21.8448 33.8003L25.2591 30.0058L27.6979 28.3458V18.3853L23.7958 16.4881Z" fill="white"/>
<rect x="5.99239" y="11.9821" width="5.85316" height="2.84584" fill="black"/>
<rect x="3.06583" y="14.8282" width="2.92659" height="2.84584" fill="black"/>
<rect x="5.99239" y="20.5198" width="2.92659" height="2.84584" fill="black"/>
<rect x="17.6988" y="21.9428" width="2.92659" height="2.84584" fill="black"/>
<rect x="26.4786" y="17.6739" width="2.92659" height="11.3834" fill="black"/>
<rect x="3.06583" y="26.2115" width="2.92659" height="5.69168" fill="black"/>
<rect x="5.99239" y="29.0573" width="2.92659" height="2.84581" fill="black"/>
<rect x="8.91908" y="29.0573" width="2.92659" height="2.84584" fill="black"/>
<rect x="0.139297" y="17.6739" width="2.92659" height="8.53752" fill="black"/>
<rect x="8.91908" y="17.6739" width="2.92659" height="5.69168" fill="black"/>
<rect x="7.94345" y="23.3656" width="2.92659" height="5.69168" fill="black"/>
<rect x="17.6988" y="11.9821" width="3.09276" height="2.84584" fill="black"/>
<rect x="20.6254" y="14.8282" width="5.85319" height="2.84584" fill="black"/>
<rect x="23.552" y="29.0573" width="2.92659" height="2.84584" fill="black"/>
<rect x="11.8456" y="29.0573" width="2.92659" height="2.84584" fill="black"/>
<rect x="14.7722" y="31.9031" width="8.77978" height="2.84584" fill="black"/>
<rect x="11.8456" y="14.8282" width="2.92659" height="2.84584" fill="black"/>
<rect x="14.7722" y="11.9821" width="2.92659" height="2.84584" fill="black"/>
</svg>
