<svg width="110" height="62" viewBox="0 0 110 62" fill="none" xmlns="http://www.w3.org/2000/svg">
<path d="M102.432 18.3252H98.7653V21.9919H95.0986V25.6586H91.4367V29.3205H87.77V32.9872H84.1033V29.3205H80.4365V25.6586H76.7698V21.9919H69.4412V18.3252H62.1078H47.4457V14.6585V10.9965V3.66312H43.7838V7.32983H40.1171V10.9965H36.4503V14.6585H32.7836V18.3252H29.1169V21.9919H18.1216V25.6586H14.4549V29.3205H7.12621V32.9872H3.4595V36.654H7.12621V40.3207H10.7929V43.9874H14.4549V47.6493H18.1216V51.316H21.7883V54.9827H40.1171H43.7838V58.6494H51.1124V54.9827V51.316H58.4458H62.1078V47.6493H69.4412V43.9874H84.1033V47.6493H87.77H91.4367V51.316H95.0986V58.6494H102.432V54.9827H98.7653V47.6493H95.0986V40.3207H91.4367V36.654H95.0986V29.3205H98.7653V25.6586H102.432V21.9919H106.099V18.3252H102.432Z" fill="#CACEE0"/>
<path d="M105.774 61.9915H91.7566V54.6581H88.0899V50.9914H80.7564V47.3246H72.7785V50.9914H65.4451V54.6581H54.4497V61.9915H40.4322V58.3248H18.4367V54.6581H14.77V50.9914H11.1033V47.3246H7.43656V43.6579H3.76985V39.9912H0.117462V29.6404H3.78417V25.9737H11.1176V22.307H14.7843V18.6403H25.7797V14.9736H29.4464V11.3069H33.1131V7.64014H36.7798V3.97343H40.4465V0.321045H50.7973V14.9831H72.7928V18.6498H80.1262V22.3165H83.7929V25.9832H88.1042V22.3165H91.7709V18.6498H95.4376V14.9831H109.455V25.3339H105.788V29.0006H102.122V32.6674H98.455V44.312H102.122V51.6454H105.788V61.9963L105.774 61.9915ZM47.1258 55.3074H47.7751V47.974H58.7705V44.3072H66.1039V40.6405H87.4501V44.3072H91.7613V43.6579H88.0946V36.3245H80.7612V32.6578H77.0945V28.9911H73.4278V25.3244H66.0944V21.6577H44.0989V10.6623H43.4496V14.329H39.7829V17.9957H36.1162V21.6624H32.4494V25.3292H21.4541V28.9959H17.7874V32.6626H10.454V36.9738H14.1207V40.6405H17.7874V44.3072H21.4541V47.974H25.1208V51.6407H47.1163V55.3074H47.1258ZM91.112 33.3119H91.7613V32.6626H91.112V33.3119Z" fill="#222221"/>
<path d="M32.7836 18.3252H29.1169V21.9919H18.1216V25.6586H14.4549V29.3205H7.12621V32.9872H3.4595V36.654H7.12621V40.3207H10.7929V43.9874H14.4549V47.6493H18.1216V51.316H21.7883V54.9827H47.4457V51.316H58.4458H62.1078V47.6493H69.4412V43.9874H84.1033V47.6493H91.4367V51.316H95.0986V58.6494H102.432V54.9827H98.7653V47.6493H95.0986V40.3207H91.4367V36.654H95.0986V29.3205H98.7653V25.6586H102.432V21.9919H106.099V18.3252H102.432H98.7653V21.9919H95.0986V25.6586H91.4367V29.3205H87.77V32.9872H84.1033V29.3205H80.4365V25.6586H76.7698V21.9919H69.4412V18.3252H47.4457V14.6585V3.66312H43.7838V7.32983H40.1171V10.9965H36.4503V14.6585H32.7836V18.3252Z" fill="#949AAF"/>
<path d="M10.7929 40.3207H18.1216V43.9874H21.7883V47.6493H25.455V51.316H32.7837V47.6493H47.4457V43.9874H54.7791V47.6493H58.4459V43.9874H65.7745V40.3207H76.7699H84.1033H87.77V47.6493H84.1033V43.9874H69.4412V47.6493H62.1078V51.316H47.4457V54.9827H21.7883V51.316H18.1216V47.6493H14.4549V43.9874H10.7929V40.3207Z" fill="white"/>
<path d="M32.7837 43.9874V47.6493H36.4504V51.316H40.1171V54.9828H43.7838V58.6495H51.1124V54.9828V51.316H47.4457V43.9874H32.7837Z" fill="#949AAF"/>
<path d="M25.455 29.3206H21.7883V32.9873H25.455V29.3206Z" fill="#28211C"/>
<path d="M29.1169 32.9872H32.7837V36.654H36.4504V40.3207H32.7837V43.9874H29.1169V40.3207H32.7837V36.654H29.1169V32.9872Z" fill="#CACEE0"/>
<path d="M47.4457 18.3252H43.7838V14.6585V10.9965H47.4457V18.3252Z" fill="#CACEE0"/>
<path d="M62.1078 18.3252V21.9919H65.7745V25.6586H69.4412H73.1079V29.3206H80.4366V32.9873H84.1033V29.3206H80.4366V25.6586H76.7699V21.9919H69.4412V18.3252H62.1078Z" fill="#CACEE0"/>
<path d="M27.1743 23.064L22.2967 20.4553H19.3701L17.1751 22.1154L14.2485 20.9296L10.1025 19.981L8.39536 23.5383L4.73712 24.9612V29.23L8.39536 36.5817H15.468L19.1262 39.1904L25.2233 40.3762L28.6376 36.5817L31.0765 34.9216V24.9612L27.1743 23.064Z" fill="white"/>
<rect x="9.37088" y="18.558" width="5.85316" height="2.84584" fill="black"/>
<rect x="6.44431" y="21.4041" width="2.92659" height="2.84584" fill="black"/>
<rect x="9.37088" y="27.0957" width="2.92659" height="2.84584" fill="black"/>
<rect x="21.0773" y="28.5187" width="2.92659" height="2.84584" fill="black"/>
<rect x="29.8571" y="24.2497" width="2.92659" height="11.3834" fill="black"/>
<rect x="6.44431" y="32.7874" width="2.92659" height="5.69168" fill="black"/>
<rect x="9.37088" y="35.6331" width="2.92659" height="2.84581" fill="black"/>
<rect x="12.2975" y="35.6331" width="2.92659" height="2.84584" fill="black"/>
<rect x="3.51776" y="24.2497" width="2.92659" height="8.53752" fill="black"/>
<rect x="12.2975" y="24.2497" width="2.92659" height="5.69168" fill="black"/>
<rect x="11.3219" y="29.9415" width="2.92659" height="5.69168" fill="black"/>
<rect x="21.0773" y="18.558" width="3.09276" height="2.84584" fill="black"/>
<rect x="24.0039" y="21.4041" width="5.85319" height="2.84584" fill="black"/>
<rect x="26.9305" y="35.6331" width="2.92659" height="2.84584" fill="black"/>
<rect x="15.2241" y="35.6331" width="2.92659" height="2.84584" fill="black"/>
<rect x="18.1506" y="38.479" width="8.77978" height="2.84584" fill="black"/>
<rect x="15.2241" y="21.4041" width="2.92659" height="2.84584" fill="black"/>
<rect x="18.1506" y="18.558" width="2.92659" height="2.84584" fill="black"/>
</svg>
