<svg width="77" height="74" viewBox="0 0 77 74" fill="none" xmlns="http://www.w3.org/2000/svg">
<path d="M70.0435 40.186V37.1547H63.9807V40.186H60.9494V43.2174H54.8866V40.186H51.8553V37.1547H54.8866V31.092H51.8553V28.0606H54.8866V21.9979H57.918V12.9077H54.8866V9.87634H51.8553V6.84498H48.8239V3.81361H33.671V6.84498H30.6397V9.87634H27.6083V12.9077H24.5769V21.9979H27.6083V28.0606H30.6397V34.1233H27.6083V31.092H24.5769V28.0606H15.4868V25.0292H9.42405V28.0606H6.39269V31.092H3.36132V34.1233H6.39269V37.1547H9.42405V40.186H12.4554V34.1233H9.42405V31.092H12.4554V34.1233H21.5456V37.1547H24.5769V43.2174H21.5456V40.186H18.5142V43.2174H12.4515V46.2488H9.42011V52.3115H6.38874V49.2801H3.35738V58.3703H12.4475V52.3076H15.4789V49.2762H18.5103V46.2448H21.5416V52.3076H24.573V55.3389H18.5103V58.3703H15.4789V64.433H18.5103V67.4644H21.5416V70.4958H27.6044V61.4056H24.573V64.437H21.5416V58.3742H27.6044V52.3115H30.6357V46.2488H33.6671V52.3115H30.6357V58.3742H27.6044V61.4056H30.6357V67.4683H33.6671V70.4997H42.7572V64.437H39.7259V67.4683H36.6945V58.3782H33.6631V55.3468H39.7259V46.2567H42.7572V49.288H45.7886V55.3508H48.82V61.4135H51.8513V64.4449H60.9415V61.4135H63.9728V46.2606H67.0042V49.292H70.0356V43.2293H73.0669V40.1979H70.0356L70.0435 40.186ZM48.8318 49.2762V46.2448H51.8632V49.2762H48.8318ZM51.8632 55.3389V52.3076H54.8945V55.3389H51.8632Z" fill="#AD3735"/>
<path d="M45.9268 73.6495H18.3997V70.6181H15.3684V67.5868H12.337V61.524H0.2155V46.1186H6.27823V40.3124H3.24687V37.281H0.2155V27.9343H3.24687V24.9029H6.27823V21.8716H18.6563V24.9029H21.4311V9.75401H24.4625V6.72265H27.4938V3.69128H30.5252V0.663864H51.9934V3.69523H55.0248V6.72659H58.0562V9.75796H61.0875V25.1635H58.0562V37.0324H60.831V34.001H73.209V37.0324H76.2404V46.3791H73.209V52.4418H67.1463V64.5633H64.1149V67.5947H48.7095V64.5633H45.9347V73.6535L45.9268 73.6495ZM55.0169 61.2714H57.7917V58.4966H55.0169V61.2714ZM39.864 61.2714H45.6702V58.4966H39.864V61.2714ZM58.0483 58.2401H60.8231V46.3712H55.0169V49.146H58.0483V58.2361V58.2401ZM24.7111 49.1499H27.4859V46.3751H24.7111V49.1499ZM45.6702 43.0872H48.7016V24.9029H51.7329V18.8402H54.7643V16.0654H51.7329V13.034H48.7016V10.0027H45.6702V6.97131H36.8327V10.0027H33.8013V13.034H30.7699V16.0654H27.7386V18.8402H30.7699V24.9029H33.8013V37.281H27.7386V43.0872H45.6662H45.6702Z" fill="#222221"/>
<path d="M51.8593 40.186H54.8906V43.2174H60.9534V40.186H63.9808V37.1586H70.0435V40.186H73.0749V43.2174H70.0435V49.2801H67.0121V46.2488H63.9808V58.3703H54.8906V52.3076H51.8593V46.2488H48.8318V40.186H51.8593Z" fill="#EA8989"/>
<path d="M24.5848 52.3076V55.339H18.526V58.3703H15.4947V64.4291H18.526V67.4605H21.5574V70.4918H27.6162V61.4017H24.5848V64.4291H21.5574V61.4017V58.3703H27.6162V52.3076H30.6476V46.2488H24.5848V52.3076Z" fill="#EA8989"/>
<path d="M60.9533 49.2802V43.2174H54.8906V49.2802H57.922V52.3076H60.9533V55.3389H57.922V58.3703H54.8906V55.3389H51.8592V49.2802H48.8318V43.2174H51.8592V37.1586H54.8906V31.0959H51.8592V28.0645H54.8906V22.0058H57.922V12.9117H54.8906V9.88425H51.8592V6.85288H48.8318V3.82152H45.8004H33.6789V6.85288H30.6476V9.88425H27.6162V12.9117H24.5848V22.0058H27.6162V28.0645H30.6476V34.1273H27.6162V31.0959H24.5848V28.0645H15.4947V25.0332H9.4359V28.0645H6.40453V31.0959H3.37317V34.1273H6.40453V37.1586H9.4359V40.1861H12.4633V37.1586V34.1273H9.4359V31.0959H12.4633V34.1273H15.4947H21.5574V37.1586H24.5848V43.2174H21.5574V40.1861H18.526V43.2174H12.4633V46.2488H9.4359V52.3076H6.40453V49.2802H3.37317V58.3703H12.4633V52.3076H15.4947V49.2802H18.526V46.2488H21.5574V52.3076H27.6162V49.2802H30.6476V46.2488H33.6789V49.2802V52.3076H30.6476V58.3703H27.6162V61.4017H30.6476V64.4291V67.4605H33.6789V70.4918H42.7691V64.4291H39.7377V67.4605H36.7103V58.3703H33.6789V55.3389H39.7377V49.2802V46.2488H42.7691V49.2802H45.8004V55.3389H48.8318V61.4017H51.8592V64.4291H54.8906H60.9533V61.4017H63.9807V55.3389V49.2802H60.9533Z" fill="#D9413D"/>
<path d="M45.8005 6.85286H42.7691V9.88422H45.8005V12.9116H48.8318V9.88422H45.8005V6.85286Z" fill="#D93F3D"/>
<path d="M33.6789 18.9744H30.6476V22.0058H27.6162V25.0332H30.6476V22.0058H33.6789V18.9744Z" fill="#D93F3D"/>
<path d="M48.8318 22.0058H51.8593V18.9744H48.8318V22.0058Z" fill="#D93F3D"/>
<path d="M30.6476 46.2488V43.2174H33.6789V40.1861H36.7103V43.2174H33.6789V46.2488H30.6476Z" fill="#AD3735"/>
<path d="M51.8592 40.1861H48.8318V37.1586H45.8004V34.1273H48.8318V37.1586H51.8592V40.1861Z" fill="#AD3735"/>
<path d="M15.4947 31.0959H12.4633V34.1273H15.4947V31.0959Z" fill="#AD3735"/>
<path d="M21.5574 34.1273H24.5849V37.1586H27.6162V40.1861H24.5849V37.1586H21.5574V34.1273Z" fill="#AD3735"/>
<path d="M44.0811 12.097L39.2035 9.48828H36.2769L34.082 11.1484L31.1554 9.96259L27.0094 9.01398L25.3022 12.5713L21.6439 13.9942V18.263L25.3022 25.6147H32.3748L36.033 28.2234L42.1301 29.4092L45.5444 25.6147L47.9833 23.9546V13.9942L44.0811 12.097Z" fill="white"/>
<rect x="26.2777" y="7.591" width="5.85316" height="2.84584" fill="black"/>
<rect x="23.3512" y="10.4371" width="2.92659" height="2.84584" fill="black"/>
<rect x="26.2777" y="16.1287" width="2.92659" height="2.84584" fill="black"/>
<rect x="37.9841" y="17.5517" width="2.92659" height="2.84584" fill="black"/>
<rect x="46.7639" y="13.2827" width="2.92659" height="11.3834" fill="black"/>
<rect x="23.3512" y="21.8204" width="2.92659" height="5.69168" fill="black"/>
<rect x="26.2777" y="24.6661" width="2.92659" height="2.84581" fill="black"/>
<rect x="29.2044" y="24.6661" width="2.92659" height="2.84584" fill="black"/>
<rect x="20.4246" y="13.2827" width="2.92659" height="8.53752" fill="black"/>
<rect x="29.2044" y="13.2827" width="2.92659" height="5.69168" fill="black"/>
<rect x="28.2288" y="18.9745" width="2.92659" height="5.69168" fill="black"/>
<rect x="37.9841" y="7.591" width="3.09276" height="2.84584" fill="black"/>
<rect x="40.9107" y="10.4371" width="5.85319" height="2.84584" fill="black"/>
<rect x="43.8374" y="24.6661" width="2.92659" height="2.84584" fill="black"/>
<rect x="32.1309" y="24.6661" width="2.92659" height="2.84584" fill="black"/>
<rect x="35.0575" y="27.512" width="8.77978" height="2.84584" fill="black"/>
<rect x="32.1309" y="10.4371" width="2.92659" height="2.84584" fill="black"/>
<rect x="35.0575" y="7.591" width="2.92659" height="2.84584" fill="black"/>
</svg>
