<svg width="119" height="96" viewBox="0 0 119 96" fill="none" xmlns="http://www.w3.org/2000/svg">
<path d="M115.876 44.4391V29.5664H108.437V33.2833H104.714V37.0001H100.997V40.7223H97.2806H93.5584V37.0001V29.5664H89.8416V25.8442H86.1247V22.1274H82.4025V18.4051H74.9689V14.6883H67.5298V10.9715H60.0907V7.24926H52.6517V3.53244H37.779V7.24926H34.0622V10.9715H30.3399V14.6883H26.6231V18.4051V22.1274H22.9009V25.8442H19.184V29.5664H15.4672V37.0001H11.745V40.7223H8.02817V44.4391V48.156V51.8782V55.595V59.3118H11.745V63.0341H15.4672V70.4731H19.184V74.19H22.9009V77.9068H26.6231V81.629H30.3399V85.3458H34.0622V89.0627H37.779V92.7849H45.218V85.3458H60.0907V89.0627H67.5298V85.3458H71.2466H78.6857V81.629H86.1247V77.9068H89.8416V74.19H93.5584V66.7509V63.0341V59.3118H97.2806H100.997V63.0341H104.714V66.7509H108.437V70.4731H115.876V59.3118H112.153V44.4391H115.876Z" fill="#B74EE9"/>
<path d="M47.9271 95.4939H35.07V91.7771H31.3532V88.0603H27.6363V84.3435H23.9195V80.6266H20.2027V76.9098H16.4859V73.193H12.769V65.7539H9.05223V62.0371H5.31915V38.0241H9.03597V34.3073H12.7528V26.8682H16.4696V23.1514H20.1864V19.4346H23.9033V11.9955H27.6201V8.27868H31.3369V4.56186H35.0537V0.823364H55.3445V4.54018H62.7836V8.25701H70.2226V11.9738H77.6617V15.6906H85.1008V19.4075H88.8176V23.1243H92.5344V26.8411H96.2512V37.997H98.2722V34.2802H101.989V30.5633H105.706V26.8465H118.563V47.1373H114.846V56.5973H118.563V73.1713H105.706V69.4545H101.989V65.7377H98.2722V62.0209H96.2512V76.8936H92.5344V80.6104H88.8176V84.3272H81.3785V88.044H70.2226V91.7608H57.3655V88.044H47.9055V95.4831L47.9271 95.4939ZM40.4881 90.0758H42.509V82.6368H62.8053V86.3536H64.8262V82.6368H75.9821V78.9199H83.4212V75.2031H87.138V71.4863H90.8548V56.6136H103.712V60.3304H107.429V64.0472H111.146V67.7641H113.167V62.0263H109.45V41.7301H113.167V32.2755H111.146V35.9923H107.429V39.7091H103.712V43.4259H90.8548V32.2701H87.138V28.5532H83.4212V24.8364H79.7043V21.1196H72.2653V17.4028H64.8262V13.6859H57.3872V9.96913H49.9481V6.25231H40.4935V9.96913H36.7767V13.6859H33.0599V17.4028H29.343V24.8418H25.6262V28.5586H21.9094V32.2755H18.1926V39.7145H14.4758V43.4313H10.7589V56.6082H14.4758V60.325H18.1926V67.7641H21.9094V71.4809H25.6262V75.1977H29.343V78.9145H33.0599V82.6313H36.7767V86.3482H40.4935V90.065L40.4881 90.0758Z" fill="#222221"/>
<path d="M26.6231 18.4051V14.6883H30.34V10.9715H34.0622V7.24926H37.779V3.53244H52.6517V7.24926H60.0908V10.9715H67.5298V14.6883H74.9689V18.4051H82.4025V22.1274H86.1248V25.8442H89.8416V29.5664H93.5584V37.0001H26.6231V18.4051Z" fill="#81319D"/>
<path d="M97.2807 40.7223H100.998V37.0001H104.714V33.2833H108.437V29.5664H115.876V44.4391H112.153V59.3118H115.876V70.4731H108.437V66.7509H104.714V63.0341H100.998V59.3118H97.2807" fill="#81319D"/>
<path d="M93.5585 66.7509V74.1899H89.8416V77.9067H86.1248V81.629H78.6858V85.3458H71.2467H67.5299V89.0626H60.0908V66.7509H93.5585Z" fill="#81319D"/>
<path d="M30.34 77.9067V85.3458H34.0622V89.0626H37.7791V92.7849H45.2181V85.3458H41.4959V77.9067H30.34Z" fill="#81319D"/>
<path d="M97.2807 44.4391V40.7223H93.5585V37H89.8416V33.2832H86.1248V29.5664H82.4026V25.8442H78.6858V22.1273H71.2467V18.4051H67.5299H63.8076H60.0908V14.6883H48.9349H37.7791V18.4051H26.6232V22.1273H22.9009V25.8442H19.1841V29.5664H15.4673V37H11.745V40.7223H8.02823V44.4391V48.1559V51.8782V55.595V59.3118H11.745V63.034H15.4673V70.4731H19.1841V74.1899H22.9009V77.9067H26.6232V81.629H30.34H34.0622V85.3458H60.0908V81.629H63.8076H67.5299H71.2467V77.9067H78.6858V74.1899H82.4026V70.4731H86.1248H89.8416V66.7509H93.5585V63.034V59.3118H97.2807V55.595H100.998V44.4391H97.2807Z" fill="#B24DE1"/>
<path d="M41.4959 59.3118H45.2181V63.0341H52.6518V66.7509H56.374V77.9068H52.6518V81.629H48.9349V77.9068H41.4959V70.4731H37.7791V59.3118H41.4959Z" fill="#81319D"/>
<path d="M45.2127 33.2832H41.4958V37H45.2127V33.2832Z" fill="#771D86"/>
<path d="M48.9349 37H45.2181V40.7169H48.9349V37Z" fill="#771D86"/>
<path d="M52.6518 40.7223H48.9349V44.4391H52.6518V40.7223Z" fill="#771D86"/>
<path d="M52.6518 44.4391H48.9349V48.1559H52.6518V44.4391Z" fill="#771D86"/>
<path d="M48.9349 48.1559H45.2181V51.8727H48.9349V48.1559Z" fill="#771D86"/>
<path d="M45.2127 51.8781H41.4958V55.595H45.2127V51.8781Z" fill="#771D86"/>
<path d="M41.4959 55.595H37.7791V59.3118H41.4959V55.595Z" fill="#771D86"/>
<path d="M11.745 51.8781H8.02823V55.595H11.745V51.8781Z" fill="#771D86"/>
<path d="M15.4619 55.595H11.7451V59.3118H15.4619V55.595Z" fill="#771D86"/>
<path d="M19.1841 55.595H15.4673V59.3118H19.1841V55.595Z" fill="#771D86"/>
<path d="M22.901 59.3118H19.1841V63.0286H22.901V59.3118Z" fill="#771D86"/>
<path d="M26.6178 55.595H22.9009V59.3118H26.6178V55.595Z" fill="#771D86"/>
<path d="M71.2467 18.4051H60.0908V22.1219H71.2467V18.4051Z" fill="#B74EE9"/>
<path d="M78.6857 22.1273H67.5298V25.8442H78.6857V22.1273Z" fill="#B74EE9"/>
<path d="M82.408 25.8441H74.9689V29.561H82.408V25.8441Z" fill="#B74EE9"/>
<path d="M86.1248 29.5664H78.6858V33.2832H86.1248V29.5664Z" fill="#B74EE9"/>
<path d="M89.8416 33.2832H86.1248V37H89.8416V33.2832Z" fill="#B74EE9"/>
<path d="M93.5585 37H89.8416V40.7169H93.5585V37Z" fill="#B74EE9"/>
<path d="M97.2753 40.7223H93.5585V44.4391H97.2753V40.7223Z" fill="#B74EE9"/>
<path d="M100.998 44.4391H97.2807V48.1559H100.998V44.4391Z" fill="#B74EE9"/>
<path d="M24.4515 26.6334L19.5739 24.0247H16.6473L14.4523 25.6847L11.5257 24.499L7.37973 23.5504L5.67255 27.1077L2.01431 28.5306V32.7994L5.67255 40.1511H12.7452L16.4034 42.7598L22.5005 43.9456L25.9148 40.1511L28.3536 38.491V28.5306L24.4515 26.6334Z" fill="white"/>
<rect x="6.64807" y="22.1274" width="5.85316" height="2.84584" fill="black"/>
<rect x="3.7215" y="24.9735" width="2.92659" height="2.84584" fill="black"/>
<rect x="6.64807" y="30.6651" width="2.92659" height="2.84584" fill="black"/>
<rect x="18.3545" y="32.0881" width="2.92659" height="2.84584" fill="black"/>
<rect x="27.1342" y="27.8192" width="2.92659" height="11.3834" fill="black"/>
<rect x="3.7215" y="36.3568" width="2.92659" height="5.69168" fill="black"/>
<rect x="6.64807" y="39.2025" width="2.92659" height="2.84581" fill="black"/>
<rect x="9.57471" y="39.2025" width="2.92659" height="2.84584" fill="black"/>
<rect x="0.794952" y="27.8192" width="2.92659" height="8.53752" fill="black"/>
<rect x="9.57471" y="27.8192" width="2.92659" height="5.69168" fill="black"/>
<rect x="8.59912" y="33.5109" width="2.92659" height="5.69168" fill="black"/>
<rect x="18.3545" y="22.1274" width="3.09276" height="2.84584" fill="black"/>
<rect x="21.2811" y="24.9735" width="5.85319" height="2.84584" fill="black"/>
<rect x="24.2077" y="39.2025" width="2.92659" height="2.84584" fill="black"/>
<rect x="12.5013" y="39.2025" width="2.92659" height="2.84584" fill="black"/>
<rect x="15.4278" y="42.0484" width="8.77978" height="2.84584" fill="black"/>
<rect x="12.5013" y="24.9735" width="2.92659" height="2.84584" fill="black"/>
<rect x="15.4278" y="22.1274" width="2.92659" height="2.84584" fill="black"/>
</svg>
