<svg width="100" height="63" viewBox="0 0 100 63" fill="none" xmlns="http://www.w3.org/2000/svg">
<path d="M94.6265 27.277V24.5415H91.8104V21.8061H88.9983V19.0666H86.1862V16.3311H83.3701V13.5916H80.558V10.8562H77.7459V13.5916H74.9297V16.3311H72.1177V19.0666H69.3056V21.8061H66.4894V24.5415H63.6774H60.8612V21.8061H58.0491V19.0666V16.3311H55.237V13.5916H52.4209H49.6088V10.8562H43.9806V8.12068H41.1685V5.3812H38.3564V2.64572H35.5402H29.912V5.3812H27.0999V8.12068H24.2879V10.8562H21.4717V13.5916V16.3311H18.6596V19.0666H15.8475V21.8061H13.0314V24.5415H10.2193V32.752V35.4875V38.2269H13.0314V40.9624H15.8475V43.6979H18.6596V46.4374H21.4717V49.1729H18.6596V54.6478H21.4717V57.3833H24.2879V60.1228H32.7282V57.3833V51.9123H38.3564V49.1729H41.1685V51.9123H43.9806V54.6478H46.7967H49.6088V57.3833H55.237V51.9123H58.0491V49.1729H55.237V46.4374H52.4209V43.6979H55.237H58.0491V40.9624H60.8612V38.2269H63.6774H66.4894H69.3056V35.4875H72.1177V38.2269H74.9297V40.9624H77.7459V43.6979H80.558V46.4374H86.1862V49.1729H88.9983H91.8104V46.4374H94.6265V43.6979V40.9624H91.8104V38.2269H88.9983V40.9624H86.1862V38.2269H83.3701V35.4875H80.558V32.752H77.7459V30.0165H74.9297V27.277H77.7459V24.5415H80.558V21.8061H83.3701V24.5415H86.1862V27.277H88.9983V30.0165H91.8104V32.752H94.6265V30.0165H97.4386V27.277H94.6265Z" fill="#FFB031"/>
<path d="M34.9827 62.316H22.0333V59.5805H19.2212V56.845H16.4091V45.8951H13.5971V43.1596H10.785V40.4241H7.96472V22.3524H10.7768V19.6169H13.5889V16.8814H16.4009V14.1459H19.213V8.67099H22.0251V5.9355H24.8372V3.20002H27.6492V0.452576H40.5987V3.18806H43.4108V5.92354H46.2228V8.65903H51.8511V11.3945H57.4793V14.13H60.2914V19.6049H63.1035V22.3404H64.2226V19.6049H67.0346V16.8695H69.8467V14.134H72.6588V11.3985H75.4708V8.66301H82.7921V11.3985H85.6041V14.134H88.4162V16.8695H91.2283V19.6049H94.0404V22.3404H96.8524V25.0759H99.6645V32.1977H96.8524V34.9332H89.5312V32.1977H86.7191V29.4623H83.9071V26.7268H79.9759V30.5509H82.788V33.2863H85.6V36.0218H94.0404V38.7573H96.8524V48.6186H94.0404V51.3541H83.903V48.6186H78.2747V45.8831H75.4626V43.1476H72.6506V40.4122H63.0912V43.1476H60.2791V45.8831H57.467V46.9717H60.2791V54.0936H57.467V59.5685H47.3296V56.833H41.7014V54.0976H34.9582V62.308L34.9827 62.316ZM26.5424 57.9296H30.4736V49.7192H36.1018V46.9837H43.4231V49.7192H46.2351V52.4547H51.8634V55.1902H52.9825V48.6306H50.1704V41.5087H55.7986V38.7733H58.6107V36.0378H67.051V33.3023H74.3723V36.0378H77.1843V38.7733H79.9964V41.5087H82.8085V44.2442H88.4367V46.9797H89.5558V44.2442H92.3679V43.1556H83.9276V40.4201H81.1155V37.6847H78.3034V34.9492H75.4913V32.2137H72.6793V25.0919H75.4913V22.3564H78.3034V19.6209H83.9317V18.5323H81.1196V15.7968H77.1884V18.5323H74.3764V21.2678H71.5643V24.0033H68.7522V26.7387H58.6148V24.0033H55.8027V18.5283H52.9907V15.7928H47.3624V13.0573H41.7342V10.3218H38.9221V7.58636H36.11V4.85088H32.1789V7.58636H29.3668V10.3218H26.5547V13.0573H23.7427V18.5323H20.9306V21.2678H18.1185V24.0033H15.3064V26.7387H12.4944V36.0378H15.3064V38.7733H18.1185V41.5087H20.9306V44.2442H23.7427V51.3661H20.9306V52.4547H23.7427V55.1902H26.5547V57.9256L26.5424 57.9296ZM91.2529 27.8234H92.372V26.7347H91.2529V27.8234ZM88.4408 25.0879H89.5599V23.9993H88.4408V25.0879ZM85.6287 22.3524H86.7478V21.2638H85.6287V22.3524Z" fill="#222221"/>
<path d="M94.6266 27.2771V24.5416H91.8104V21.8061H88.9983V19.0666H86.1862V16.3312H83.3701V13.5917H80.558V10.8562H77.7459V13.5917H74.9298V16.3312H72.1177V19.0666H69.3056V21.8061H66.4894V24.5416H63.6774V38.227H69.3056V35.4875H72.1177V38.227H74.9298V40.9625H77.7459V43.698H80.558V46.4374H86.1862V49.1729H88.9983H91.8104V46.4374H94.6266V43.698V40.9625H91.8104V38.227H88.9983V40.9625H86.1862V38.227H83.3701V35.4875H80.558V32.752H77.7459V30.0165H74.9298V27.2771H77.7459V24.5416H80.558V21.8061H83.3701V24.5416H86.1862V27.2771H88.9983V30.0165H91.8104V32.752H94.6266V30.0165H97.4386V27.2771H94.6266Z" fill="#6372F8"/>
<path d="M66.4894 27.2771V24.5416H69.3056V21.8061H72.1177V19.0666H74.9298V21.8061H77.7459V24.5416H74.9298H72.1177V27.2771V30.0165V32.752H74.9298V38.227H72.1177V35.4875H69.3056V38.227H66.4894V27.2771Z" fill="#363BB7"/>
<path d="M21.4717 13.5916V10.8562H24.2879V8.12068H27.0999V5.3812H29.912V2.64572H35.5402H38.3564V5.3812H41.1685V8.12068H43.9806V10.8562H49.6088V13.5916H52.4209H55.237V16.3311H58.0491V19.0666H21.4717V13.5916Z" fill="#6372F8"/>
<path d="M27.0999 10.8561V8.12067H29.912H32.7282V5.3812H35.5402V8.12067H38.3564V10.8561H41.1685V13.5916H49.6088V16.3311H27.0999V10.8561Z" fill="#363BB7"/>
<path d="M41.1685 46.4374V51.9124H43.9805V54.6478H49.6088V57.3833H55.237V51.9124H58.0491V49.1729H55.237V46.4374H41.1685Z" fill="#6372F8"/>
<path d="M52.4208 46.4374V49.1729H49.6088V51.9124H46.7967V54.6478H43.9805V51.9124H41.1685V46.4374H52.4208Z" fill="#363BB7"/>
<path d="M63.6774 27.2771V24.5416H60.8612V21.8061H58.0491V19.0666H55.237H52.4209V16.3312H49.6088H46.7967V13.5917H43.9806H41.1685H38.3564V10.8562H29.912H27.0999H24.2879V13.5917H21.4717V16.3312H18.6596V19.0666H15.8475V21.8061H13.0314V24.5416H10.2193V38.227H13.0314V40.9625H15.8475V43.698H18.6596V46.4374H21.4717V49.1729H24.2879V51.9124H27.0999H29.912H38.3564V49.1729H41.1685H43.9806H46.7967V46.4374H49.6088H52.4209V43.698H55.237H58.0491V40.9625H60.8612V38.227H63.6774V35.4875H66.4894V27.2771H63.6774Z" fill="#FFA14B"/>
<path d="M27.0999 40.9624V43.6979H24.2879V46.4374H21.4717V49.1728H18.6596V54.6478H21.4717V57.3833H24.2879V60.1227H32.7282V57.3833V51.9123H29.912V49.1728H27.0999V46.4374H29.912V40.9624H27.0999Z" fill="#6372F8"/>
<path d="M32.7241 16.3311H29.912V19.0666H32.7241V16.3311Z" fill="#EB6C28"/>
<path d="M35.5403 19.0666H32.7282V21.8021H35.5403V19.0666Z" fill="#EB6C28"/>
<path d="M38.3524 21.8061H35.5403V24.5415H38.3524V21.8061Z" fill="#EB6C28"/>
<path d="M38.3524 24.5415H35.5403V27.277H38.3524V24.5415Z" fill="#EB6C28"/>
<path d="M38.3524 27.277H35.5403V30.0125H38.3524V27.277Z" fill="#EB6C28"/>
<path d="M35.5403 30.0165H32.7282V32.752H35.5403V30.0165Z" fill="#EB6C28"/>
<path d="M43.9805 32.752H41.1685V35.4875H43.9805V32.752Z" fill="#EB6C28"/>
<path d="M46.7926 35.4875H43.9805V38.223H46.7926V35.4875Z" fill="#EB6C28"/>
<path d="M43.9805 38.2269H41.1685V40.9624H43.9805V38.2269Z" fill="#EB6C28"/>
<path d="M49.6088 21.8061H46.7968V24.5415H49.6088V21.8061Z" fill="#EB6C28"/>
<path d="M52.4208 24.5415H49.6088V27.277H52.4208V24.5415Z" fill="#EB6C28"/>
<path d="M49.6088 27.277H46.7968V30.0125H49.6088V27.277Z" fill="#EB6C28"/>
<path d="M58.0491 27.277H55.2371V30.0125H58.0491V27.277Z" fill="#EB6C28"/>
<path d="M60.8611 30.0165H58.0491V32.752H60.8611V30.0165Z" fill="#EB6C28"/>
<path d="M58.0491 32.752H55.2371V35.4875H58.0491V32.752Z" fill="#EB6C28"/>
<path d="M38.3524 40.9624H35.5403V43.6979H38.3524V40.9624Z" fill="#EB6C28"/>
<path d="M41.1685 43.6979H38.3564V46.4334H41.1685V43.6979Z" fill="#EB6C28"/>
<path d="M38.3524 46.4374H35.5403V49.1729H38.3524V46.4374Z" fill="#EB6C28"/>
<path d="M32.7241 32.752H29.912V35.4875H32.7241V32.752Z" fill="#EB6C28"/>
<path d="M15.8434 35.4875H13.0313V38.223H15.8434V35.4875Z" fill="#EB6C28"/>
<path d="M18.6596 35.4875H15.8475V38.223H18.6596V35.4875Z" fill="#EB6C28"/>
<path d="M21.4717 38.2269H18.6596V40.9624H21.4717V38.2269Z" fill="#EB6C28"/>
<path d="M24.2838 35.4875H21.4717V38.223H24.2838V35.4875Z" fill="#EB6C28"/>
<path d="M13.0314 32.752H10.2193V35.4875H13.0314V32.752Z" fill="#EB6C28"/>
<path d="M46.7967 13.5916H38.3564V16.3271H46.7967V13.5916Z" fill="#FFB031"/>
<path d="M52.4209 16.3311H43.9806V19.0666H52.4209V16.3311Z" fill="#FFB031"/>
<path d="M58.0491 19.0666H52.4209V21.8021H58.0491V19.0666Z" fill="#FFB031"/>
<path d="M38.3565 10.8562H32.7282V13.5917H38.3565V10.8562Z" fill="#FFB031"/>
<path d="M60.8653 21.8061H55.2371V24.5416H60.8653V21.8061Z" fill="#FFB031"/>
<path d="M63.6733 24.5415H60.8612V27.277H63.6733V24.5415Z" fill="#FFB031"/>
<path d="M66.4894 27.2771H63.6774V30.0126H66.4894V27.2771Z" fill="#FFB031"/>
<path d="M24.3049 16.8834L19.4272 14.2747H16.5006L14.3057 15.9348L11.3791 14.749L7.2331 13.8004L5.52592 17.3577L1.86768 18.7806V23.0494L5.52592 30.4011H12.5985L16.2568 33.0098L22.3538 34.1956L25.7682 30.4011L28.207 28.741V18.7806L24.3049 16.8834Z" fill="white"/>
<rect x="6.50146" y="12.3774" width="5.85316" height="2.84584" fill="black"/>
<rect x="3.57489" y="15.2235" width="2.92659" height="2.84584" fill="black"/>
<rect x="6.50146" y="20.9151" width="2.92659" height="2.84584" fill="black"/>
<rect x="18.2079" y="22.3381" width="2.92659" height="2.84584" fill="black"/>
<rect x="26.9877" y="18.0692" width="2.92659" height="11.3834" fill="black"/>
<rect x="3.57489" y="26.6068" width="2.92659" height="5.69168" fill="black"/>
<rect x="6.50146" y="29.4525" width="2.92659" height="2.84581" fill="black"/>
<rect x="9.4281" y="29.4525" width="2.92659" height="2.84584" fill="black"/>
<rect x="0.648376" y="18.0692" width="2.92659" height="8.53752" fill="black"/>
<rect x="9.4281" y="18.0692" width="2.92659" height="5.69168" fill="black"/>
<rect x="8.45251" y="23.7609" width="2.92659" height="5.69168" fill="black"/>
<rect x="18.2079" y="12.3774" width="3.09276" height="2.84584" fill="black"/>
<rect x="21.1345" y="15.2235" width="5.85319" height="2.84584" fill="black"/>
<rect x="24.0611" y="29.4525" width="2.92659" height="2.84584" fill="black"/>
<rect x="12.3547" y="29.4525" width="2.92659" height="2.84584" fill="black"/>
<rect x="15.2812" y="32.2984" width="8.77978" height="2.84584" fill="black"/>
<rect x="12.3547" y="15.2235" width="2.92659" height="2.84584" fill="black"/>
<rect x="15.2812" y="12.3774" width="2.92659" height="2.84584" fill="black"/>
</svg>
